# Blender 4.5.3 LTS
# www.blender.org
mtllib BossFieldCol.mtl
o 円柱
v 0.528549 9.909472 -58.381790
v 1.953674 9.909472 -58.311531
v 3.376534 9.909472 -58.206970
v 4.795982 9.909472 -58.067566
v 6.212029 9.909472 -57.893311
v 7.622395 9.909472 -57.684196
v 9.027653 9.909472 -57.441345
v 11.816587 9.909472 -56.851624
v 14.571459 9.909473 -56.126373
v 17.285448 9.909473 -55.267242
v 18.624842 9.909473 -54.788170
v 19.951744 9.909473 -54.276459
v 22.563532 9.909474 -53.156212
v 25.114002 9.909474 -51.909286
v 26.364254 9.909474 -51.239357
v 27.597473 9.909474 -50.539551
v 28.811386 9.909474 -49.809326
v 30.006565 9.909474 -49.049217
v 31.181870 9.909474 -48.260902
v 32.336166 9.909474 -47.443817
v 33.469456 9.909474 -46.598518
v 34.580036 9.909474 -45.725563
v 35.667904 9.909474 -44.826050
v 36.732491 9.909475 -43.899986
v 37.772663 9.909475 -42.948479
v 38.787853 9.909476 -41.971512
v 39.778065 9.909476 -40.970207
v 40.741585 9.909476 -39.944565
v 41.678425 9.909476 -38.895691
v 42.588009 9.909476 -37.824684
v 43.469772 9.909476 -36.731552
v 43.899582 9.909476 -36.176689
v 44.322578 9.909476 -35.616844
v 45.146996 9.909476 -34.482224
v 45.941319 9.909476 -33.327126
v 46.706120 9.909476 -32.153229
v 47.440258 9.909477 -30.961075
v 48.143169 9.909477 -29.751213
v 48.814854 9.909478 -28.524750
v 50.062267 9.909478 -26.023712
v 50.637428 9.909478 -24.751343
v 51.179092 9.909478 -23.465141
v 52.162487 9.909478 -20.855118
v 52.603653 9.909478 -19.532959
v 53.010185 9.909479 -18.200287
v 53.200958 9.909479 -17.530357
v 53.382645 9.909480 -16.858208
v 53.719910 9.909480 -15.507287
v 53.875481 9.909480 -14.829057
v 54.022533 9.909480 -14.148614
v 54.289959 9.909480 -12.782754
v 54.522182 9.909480 -11.411355
v 54.718636 9.909480 -10.033876
v 54.879883 9.909480 -8.652520
v 55.004795 9.909480 -7.267846
v 55.094505 9.909481 -5.879857
v 55.126301 9.909481 -5.185586
v 55.148445 9.909481 -4.490758
v 55.148445 9.909482 -1.710351
v 55.094505 9.909482 -0.321252
v 55.004795 9.909482 1.066741
v 54.718636 9.909482 3.832766
v 54.522182 9.909482 5.210246
v 54.289959 9.909483 6.581645
v 54.022533 9.909483 7.947505
v 53.719910 9.909484 9.306178
v 53.555820 9.909484 9.982745
v 53.382645 9.909484 10.657107
v 53.010185 9.909484 11.999183
v 52.162487 9.909484 14.654014
v 51.179092 9.909484 17.264034
v 50.637428 9.909484 18.550236
v 50.062267 9.909485 19.822609
v 48.814854 9.909486 22.323650
v 48.143169 9.909486 23.550106
v 47.440258 9.909486 24.759964
v 45.941319 9.909486 27.126024
v 45.146996 9.909486 28.281115
v 44.322578 9.909486 29.415739
v 43.469772 9.909486 30.530447
v 42.588009 9.909487 31.623581
v 41.678425 9.909487 32.694588
v 40.741585 9.909488 33.743462
v 36.732491 9.909488 37.698879
v 35.667904 9.909488 38.624947
v 34.580036 9.909488 39.524456
v 33.469456 9.909488 40.397415
v 32.336166 9.909488 41.242710
v 30.006565 9.909488 42.848114
v 27.597473 9.909489 44.338448
v 25.114002 9.909489 45.708183
v 23.846716 9.909489 46.347134
v 23.206829 9.909489 46.654716
v 22.563532 9.909489 46.955109
v 19.951744 9.909490 48.075348
v 17.285448 9.909490 49.066139
v 14.571459 9.909490 49.925266
v 11.816587 9.909490 50.650517
v 10.425526 9.909490 50.962524
v 9.027653 9.909490 51.240234
v 6.212029 9.909490 51.692204
v 4.795982 9.909490 51.866463
v 3.376534 9.909490 52.005871
v 0.528549 9.909490 52.180683
v -0.898281 9.909490 52.215534
v -2.325111 9.909490 52.215534
v -5.176510 9.909490 52.110428
v -6.599361 9.909490 52.005871
v -8.019382 9.909490 51.866463
v -9.434860 9.909490 51.692204
v -10.845795 9.909490 51.483093
v -13.648926 9.909490 50.962524
v -16.421394 9.909490 50.304764
v -19.156960 9.909490 49.512020
v -21.847672 9.909490 48.587063
v -24.487846 9.909490 47.530994
v -27.069550 9.909489 46.347134
v -29.587646 9.909489 45.038254
v -30.820305 9.909489 44.338448
v -32.034790 9.909488 43.608215
v -33.229965 9.909488 42.848114
v -34.404701 9.909488 42.059795
v -36.692291 9.909488 40.397415
v -38.891296 9.909488 38.624947
v -39.955315 9.909488 37.698879
v -40.995499 9.909488 36.747368
v -43.000893 9.909488 34.769104
v -44.901260 9.909487 32.694588
v -45.810837 9.909487 31.623581
v -46.692604 9.909486 30.530447
v -47.545975 9.909486 29.415739
v -47.961586 9.909486 28.850916
v -48.369827 9.909486 28.281115
v -49.928955 9.909486 25.952122
v -50.663086 9.909486 24.759964
v -51.018517 9.909486 24.157524
v -51.366570 9.909486 23.550106
v -52.038254 9.909486 22.323650
v -52.678146 9.909485 21.080597
v -53.285667 9.909485 19.822609
v -53.860252 9.909484 18.550236
v -54.910652 9.909484 15.965110
v -55.827049 9.909484 13.331851
v -56.233574 9.909484 11.999183
v -56.605476 9.909484 10.657107
v -57.245934 9.909483 7.947505
v -57.512794 9.909483 6.581645
v -57.745010 9.909482 5.210246
v -57.941467 9.909482 3.832766
v -58.102715 9.909482 2.451411
v -58.228195 9.909482 1.066741
v -58.317902 9.909482 -0.321252
v -58.389442 9.909482 -3.100553
v -58.317902 9.909481 -5.879857
v -58.102715 9.909480 -8.652520
v -57.941467 9.909480 -10.033876
v -57.745010 9.909480 -11.411355
v -57.245934 9.909480 -14.148614
v -56.943298 9.909480 -15.507287
v -56.605476 9.909480 -16.858208
v -55.827049 9.909478 -19.532959
v -55.385887 9.909478 -20.855118
v -54.910652 9.909478 -22.166214
v -54.402489 9.909478 -23.465141
v -54.135628 9.909478 -24.110176
v -53.860252 9.909478 -24.751343
v -53.285667 9.909478 -26.023712
v -52.678146 9.909478 -27.281708
v -52.038254 9.909478 -28.524750
v -51.366570 9.909477 -29.751213
v -49.928955 9.909476 -32.153229
v -48.369827 9.909476 -34.482224
v -47.545975 9.909476 -35.616844
v -46.692604 9.909476 -36.731552
v -44.901260 9.909476 -38.895691
v -43.964417 9.909476 -39.944565
v -43.000893 9.909476 -40.970207
v -40.995499 9.909475 -42.948479
v -39.955315 9.909475 -43.899986
v -38.891296 9.909474 -44.826050
v -37.802872 9.909474 -45.725563
v -36.692291 9.909474 -46.598518
v -35.559563 9.909474 -47.443817
v -34.404701 9.909474 -48.260902
v -32.034790 9.909474 -49.809326
v -30.820305 9.909474 -50.539551
v -29.587646 9.909474 -51.239357
v -28.337402 9.909474 -51.909286
v -27.069550 9.909474 -52.548241
v -25.786362 9.909474 -53.156212
v -24.487846 9.909474 -53.732101
v -21.847672 9.909473 -54.788170
v -21.179398 9.909473 -55.031578
v -20.508278 9.909473 -55.267242
v -19.156960 9.909473 -55.713135
v -18.476761 9.909473 -55.923897
v -17.794285 9.909473 -56.126373
v -16.421394 9.909473 -56.505875
v -13.648926 9.909472 -57.163635
v -10.845795 9.909472 -57.684196
v -8.019382 9.909472 -58.067566
v -5.176510 9.909472 -58.311531
v -4.464512 9.909472 -58.351364
v -3.751377 9.909472 -58.381790
v -2.325111 9.909472 -58.416641
vn -0.0000 1.0000 -0.0000
vn 0.0016 1.0000 0.0059
vn 0.0030 1.0000 -0.0009
vn -0.0006 1.0000 -0.0015
vn 0.0038 1.0000 0.0050
vn -0.0025 1.0000 0.0020
vn -0.0055 1.0000 0.0026
vn 0.0007 1.0000 -0.0011
vn -0.0011 1.0000 0.0004
vn -0.0008 1.0000 -0.0009
vn 0.0059 1.0000 -0.0003
vn -0.0009 1.0000 0.0018
vn -0.0009 1.0000 0.0008
vn 0.0010 1.0000 0.0011
vn -0.0004 1.0000 0.0024
vn 0.0058 1.0000 -0.0017
vn 0.0009 1.0000 0.0029
vn 0.0011 1.0000 -0.0005
vn 0.0058 1.0000 -0.0020
vn -0.0003 1.0000 0.0020
vn 0.0013 1.0000 -0.0000
vn -0.0003 1.0000 0.0014
vn 0.0014 1.0000 0.0001
vn -0.0037 1.0000 -0.0051
vn 0.0025 1.0000 -0.0019
vn 0.0027 1.0000 -0.0016
vn 0.0026 1.0000 -0.0059
vn 0.0028 1.0000 0.0012
vn 0.0015 1.0000 0.0007
vn -0.0031 1.0000 -0.0054
vn -0.0013 1.0000 -0.0027
vn 0.0012 1.0000 0.0001
vn -0.0020 1.0000 0.0027
vn -0.0016 1.0000 0.0060
vn -0.0031 1.0000 0.0002
vn 0.0002 1.0000 0.0064
vn 0.0013 1.0000 0.0062
vn 0.0031 1.0000 -0.0007
vt 0.986295 0.207994
vt 0.989318 0.231922
vt 0.989318 0.268078
vt 0.982460 0.309686
vt 0.792003 0.500000
vt 0.794003 0.500000
vt 0.979168 0.321290
vt 0.977304 0.327026
vt 0.973146 0.338350
vt 0.977304 0.172974
vt 0.970856 0.343930
vt 0.968425 0.349450
vt 0.980887 0.184492
vt 0.963153 0.360299
vt 0.968425 0.150550
vt 0.973146 0.161650
vt 0.960314 0.365621
vt 0.957342 0.370870
vt 0.963153 0.139701
vt 0.954239 0.376042
vt 0.944164 0.108932
vt 0.951007 0.381135
vt 0.936831 0.099354
vt 0.944164 0.391068
vt 0.947648 0.386145
vt 0.852002 0.500000
vt 0.932986 0.094707
vt 0.854002 0.500000
vt 0.936831 0.400646
vt 0.932986 0.405293
vt 0.929026 0.409843
vt 0.924952 0.414291
vt 0.920769 0.418636
vt 0.916477 0.422874
vt 0.912080 0.427003
vt 0.907581 0.431020
vt 0.929026 0.090157
vt 0.902982 0.434923
vt 0.912080 0.072997
vt 0.898286 0.438709
vt 0.893497 0.442376
vt 0.572006 0.500000
vt 0.888617 0.445921
vt 0.852187 0.032842
vt 0.883650 0.449343
vt 0.878598 0.452639
vt 0.873465 0.455806
vt 0.868255 0.458844
vt 0.841147 0.027981
vt 0.862969 0.461750
vt 0.852187 0.467158
vt 0.829877 0.023682
vt 0.841147 0.472019
vt 0.818405 0.019955
vt 0.835539 0.474239
vt 0.806760 0.016808
vt 0.829877 0.476318
vt 0.818405 0.480045
vt 0.806760 0.483192
vt 0.794972 0.485749
vt 0.789033 0.486805
vt 0.783070 0.487711
vt 0.777086 0.488467
vt 0.771084 0.489072
vt 0.765070 0.489526
vt 0.759046 0.489829
vt 0.800882 0.015456
vt 0.746984 0.489981
vt 0.783070 0.012289
vt 0.740954 0.489829
vt 0.008006 0.500000
vt 0.010006 0.500000
vt 0.722914 0.488467
vt 0.746984 0.010019
vt 0.710967 0.486805
vt 0.734930 0.010474
vt 0.699118 0.484544
vt 0.687398 0.481692
vt 0.681595 0.480045
vt 0.048006 0.500000
vt 0.050006 0.500000
vt 0.670123 0.476318
vt 0.699118 0.015456
vt 0.728916 0.010928
vt 0.056006 0.500000
vt 0.621402 0.047361
vt 0.058006 0.500000
vt 0.616350 0.050657
vt 0.653302 0.469658
vt 0.647813 0.467158
vt 0.642388 0.464522
vt 0.637031 0.461750
vt 0.611383 0.054079
vt 0.631745 0.458844
vt 0.626535 0.455806
vt 0.621402 0.452639
vt 0.601714 0.061291
vt 0.611383 0.445921
vt 0.587920 0.072997
vt 0.583523 0.077126
vt 0.606503 0.442376
vt 0.601714 0.438709
vt 0.597018 0.434923
vt 0.592419 0.431020
vt 0.575048 0.085709
vt 0.567014 0.094707
vt 0.587920 0.427003
vt 0.583523 0.422874
vt 0.575048 0.414291
vt 0.563169 0.099354
vt 0.570974 0.409843
vt 0.559442 0.104097
vt 0.567014 0.405293
vt 0.559442 0.395903
vt 0.555836 0.391068
vt 0.552352 0.386145
vt 0.545761 0.376042
vt 0.539686 0.365621
vt 0.348006 0.500000
vt 0.350006 0.500000
vt 0.536847 0.360299
vt 0.545761 0.123958
vt 0.534143 0.354908
vt 0.531575 0.349450
vt 0.334006 0.500000
vt 0.529144 0.343930
vt 0.188006 0.500000
vt 0.190006 0.500000
vt 0.524704 0.332714
vt 0.522696 0.327026
vt 0.524704 0.167286
vt 0.529144 0.156070
vt 0.520832 0.321290
vt 0.517540 0.309686
vt 0.516114 0.303825
vt 0.512724 0.286054
vt 0.514835 0.297930
vt 0.511892 0.280080
vt 0.511212 0.274087
vt 0.510000 0.250000
vt 0.510303 0.262059
vt 0.510303 0.237941
vt 0.510682 0.231922
vt 0.511212 0.225913
vt 0.511892 0.219920
vt 0.512724 0.213946
vt 0.513705 0.207994
vt 0.514835 0.202070
vt 0.517540 0.190314
vt 0.519113 0.184492
vt 0.520832 0.178710
vt 0.531575 0.150550
vt 0.534143 0.145092
vt 0.536847 0.139701
vt 0.539686 0.134379
vt 0.332006 0.500000
vt 0.552352 0.113855
vt 0.592419 0.068980
vt 0.626535 0.044194
vt 0.631745 0.041156
vt 0.642388 0.035478
vt 0.653302 0.030342
vt 0.664461 0.025761
vt 0.675836 0.021746
vt 0.687398 0.018308
vt 0.710967 0.013195
vt 0.716930 0.012289
vt 0.722914 0.011533
vt 0.753016 0.010019
vt 0.759046 0.010171
vt 0.771084 0.010928
vt 0.777086 0.011533
vt 0.794972 0.014251
vt 0.574005 0.500000
vt 0.862969 0.038250
vt 0.873465 0.044194
vt 0.883650 0.050657
vt 0.893497 0.057624
vt 0.898286 0.061291
vt 0.902982 0.065077
vt 0.907581 0.068980
vt 0.940558 0.104097
vt 0.947648 0.113855
vt 0.951007 0.118865
vt 0.957342 0.129130
vt 0.960314 0.134379
vt 0.970856 0.156070
vt 0.982460 0.190314
vt 0.714004 0.500000
vt 0.712004 0.500000
vt 0.985165 0.202070
vt 0.987276 0.213946
vt 0.988108 0.219920
vt 0.989697 0.237941
vt 0.758003 0.500000
vt 0.989924 0.243969
vt 0.989924 0.256031
vt 0.756003 0.500000
vt 0.988788 0.274087
vt 0.988108 0.280080
vt 0.987276 0.286054
vt 0.986295 0.292006
vt 0.784003 0.500000
vt 0.985165 0.297930
vt 0.786003 0.500000
s 1
usemtl マテリアル.004
f 64/1/1 61/2/1 55/3/1
f 47/4/1 46/5/2 45/6/3
f 45/6/3 44/7/1 43/8/1
f 43/8/1 42/9/1 70/10/1
f 42/9/1 41/11/1 40/12/1
f 43/8/1 69/13/1 45/6/3
f 40/12/1 39/14/1 73/15/1
f 42/9/1 71/16/4 70/10/1
f 39/14/1 38/17/1 73/15/1
f 38/17/1 37/18/1 74/19/1
f 37/18/1 36/20/1 79/21/1
f 36/20/1 35/22/1 79/21/1
f 81/23/1 35/22/1 33/24/1
f 35/22/1 34/25/1 33/24/1
f 33/24/1 32/26/5 82/27/1
f 32/26/5 31/28/6 30/29/1
f 82/27/1 32/26/5 30/29/1
f 30/29/1 29/30/1 82/27/1
f 29/30/1 28/31/1 82/27/1
f 28/31/1 27/32/1 82/27/1
f 27/32/1 26/33/1 82/27/1
f 26/33/1 25/34/1 82/27/1
f 25/34/1 24/35/1 82/27/1
f 24/35/1 23/36/1 83/37/1
f 82/27/1 24/35/1 83/37/1
f 23/36/1 22/38/1 84/39/1
f 22/38/1 21/40/1 84/39/1
f 21/40/1 20/41/1 93/42/7
f 20/41/1 19/43/1 94/44/1
f 19/43/1 18/45/1 94/44/1
f 18/45/1 17/46/1 94/44/1
f 94/44/1 16/47/1 15/48/1
f 17/46/1 16/47/1 94/44/1
f 94/44/1 15/48/1 95/49/8
f 15/48/1 14/50/1 95/49/8
f 14/50/1 13/51/1 95/49/8
f 96/52/1 12/53/1 97/54/1
f 13/51/1 12/53/1 96/52/1
f 12/53/1 11/55/1 98/56/1
f 11/55/1 10/57/1 98/56/1
f 10/57/1 9/58/9 98/56/1
f 9/58/9 8/59/10 98/56/1
f 8/59/10 7/60/1 98/56/1
f 7/60/1 6/61/1 98/56/1
f 6/61/1 5/62/1 98/56/1
f 5/62/1 4/63/1 98/56/1
f 4/63/1 3/64/1 98/56/1
f 3/64/1 2/65/1 98/56/1
f 2/65/1 1/66/1 99/67/1
f 98/56/1 2/65/1 99/67/1
f 1/66/1 205/68/1 101/69/1
f 205/68/1 204/70/1 101/69/1
f 204/70/1 203/71/11 202/72/12
f 202/72/12 201/73/13 106/74/14
f 201/73/13 200/75/15 107/76/1
f 106/74/14 201/73/13 107/76/1
f 200/75/15 199/77/1 107/76/1
f 199/77/1 198/78/1 107/76/1
f 198/78/1 197/79/1 107/76/1
f 197/79/1 196/80/16 107/76/1
f 196/80/16 195/81/17 107/76/1
f 195/81/17 194/82/1 112/83/18
f 107/76/1 195/81/17 108/84/1
f 194/82/1 193/85/19 120/86/1
f 193/85/19 192/87/20 121/88/1
f 121/88/1 192/87/20 191/89/1
f 191/89/1 190/90/1 121/88/1
f 121/88/1 190/90/1 189/91/1
f 189/91/1 188/92/1 122/93/1
f 188/92/1 187/94/1 122/93/1
f 187/94/1 186/95/1 122/93/1
f 186/95/1 185/96/1 123/97/21
f 185/96/1 184/98/22 123/97/21
f 125/99/1 184/98/22 126/100/1
f 184/98/22 183/101/1 126/100/1
f 183/101/1 182/102/1 126/100/1
f 182/102/1 181/103/1 126/100/1
f 181/103/1 180/104/1 127/105/1
f 128/106/23 179/107/1 178/108/1
f 180/104/1 179/107/1 127/105/1
f 128/106/23 177/109/1 129/110/1
f 178/108/1 177/109/1 128/106/23
f 177/109/1 176/111/1 130/112/1
f 176/111/1 175/113/1 130/112/1
f 175/113/1 174/114/1 130/112/1
f 174/114/1 173/115/1 130/112/1
f 173/115/1 172/116/1 130/112/1
f 172/116/1 171/117/1 130/112/1
f 171/117/1 170/118/1 132/119/24
f 130/112/1 171/117/1 131/120/25
f 170/118/1 169/121/1 134/122/1
f 169/121/1 168/123/1 134/122/1
f 168/123/1 167/124/1 135/125/26
f 167/124/1 166/126/1 135/125/26
f 166/126/1 165/127/27 164/128/28
f 164/128/28 163/129/1 166/126/1
f 163/129/1 162/130/1 142/131/1
f 166/126/1 163/129/1 141/132/1
f 162/130/1 161/133/1 160/134/1
f 160/134/1 159/135/1 157/136/1
f 159/135/1 158/137/1 157/136/1
f 157/136/1 156/138/1 160/134/1
f 156/138/1 155/139/1 153/140/1
f 155/139/1 154/141/1 153/140/1
f 153/140/1 152/142/1 151/143/1
f 150/144/1 153/140/1 151/143/1
f 150/144/1 149/145/1 153/140/1
f 149/145/1 148/146/1 147/147/1
f 147/147/1 146/148/1 145/149/1
f 149/145/1 156/138/1 153/140/1
f 145/149/1 144/150/1 142/131/1
f 162/130/1 145/149/1 142/131/1
f 144/150/1 143/151/29 142/131/1
f 142/131/1 141/132/1 163/129/1
f 141/132/1 140/152/1 166/126/1
f 140/152/1 139/153/1 166/126/1
f 139/153/1 138/154/1 166/126/1
f 138/154/1 137/155/1 166/126/1
f 137/155/1 136/156/30 166/126/1
f 136/156/30 135/125/26 166/126/1
f 135/125/26 134/122/1 168/123/1
f 134/122/1 133/157/1 170/118/1
f 133/157/1 132/119/24 170/118/1
f 132/119/24 131/120/25 171/117/1
f 130/112/1 129/110/1 177/109/1
f 128/106/23 127/105/1 179/107/1
f 127/105/1 126/100/1 181/103/1
f 125/99/1 124/158/1 184/98/22
f 124/158/1 123/97/21 184/98/22
f 123/97/21 122/93/1 186/95/1
f 122/93/1 121/88/1 189/91/1
f 121/88/1 120/86/1 193/85/19
f 120/86/1 119/159/1 194/82/1
f 119/159/1 118/160/1 194/82/1
f 118/160/1 117/161/1 194/82/1
f 117/161/1 116/162/1 194/82/1
f 116/162/1 115/163/1 194/82/1
f 115/163/1 114/164/1 194/82/1
f 114/164/1 113/165/1 194/82/1
f 113/165/1 112/83/18 194/82/1
f 112/83/18 111/166/1 195/81/17
f 111/166/1 110/167/1 195/81/17
f 110/167/1 109/168/1 195/81/17
f 109/168/1 108/84/1 195/81/17
f 106/74/14 105/169/1 202/72/12
f 105/169/1 104/170/1 202/72/12
f 104/170/1 103/171/1 202/72/12
f 103/171/1 102/172/1 202/72/12
f 102/172/1 101/69/1 204/70/1
f 101/69/1 100/173/1 1/66/1
f 102/172/1 204/70/1 202/72/12
f 100/173/1 99/67/1 1/66/1
f 98/56/1 97/54/1 12/53/1
f 96/52/1 95/49/8 13/51/1
f 94/44/1 93/42/7 20/41/1
f 93/42/7 92/174/31 21/40/1
f 92/174/31 91/175/1 21/40/1
f 91/175/1 90/176/32 21/40/1
f 90/176/32 89/177/1 21/40/1
f 89/177/1 88/178/1 21/40/1
f 88/178/1 87/179/1 21/40/1
f 87/179/1 86/180/1 21/40/1
f 86/180/1 85/181/1 21/40/1
f 85/181/1 84/39/1 21/40/1
f 84/39/1 83/37/1 23/36/1
f 82/27/1 81/23/1 33/24/1
f 81/23/1 80/182/1 35/22/1
f 80/182/1 79/21/1 35/22/1
f 79/21/1 78/183/1 77/184/1
f 37/18/1 79/21/1 77/184/1
f 77/184/1 76/185/1 37/18/1
f 76/185/1 75/186/1 37/18/1
f 75/186/1 74/19/1 37/18/1
f 74/19/1 73/15/1 38/17/1
f 73/15/1 72/187/1 71/16/4
f 70/10/1 69/13/1 43/8/1
f 69/13/1 68/188/1 66/189/33
f 68/188/1 67/190/34 66/189/33
f 66/189/33 65/191/1 64/1/1
f 64/1/1 63/192/1 62/193/1
f 62/193/1 61/2/1 64/1/1
f 61/2/1 60/194/1 56/195/35
f 60/194/1 59/196/1 58/197/1
f 58/197/1 57/198/36 56/195/35
f 56/195/35 55/3/1 61/2/1
f 55/3/1 54/199/1 53/200/1
f 53/200/1 52/201/1 51/202/1
f 55/3/1 51/202/1 49/203/37
f 51/202/1 50/204/1 49/203/37
f 53/200/1 51/202/1 55/3/1
f 49/203/37 48/205/38 66/189/33
f 48/205/38 47/4/1 45/6/3
f 45/6/3 69/13/1 66/189/33
f 71/16/4 42/9/1 40/12/1
f 40/12/1 73/15/1 71/16/4
f 162/130/1 160/134/1 145/149/1
f 160/134/1 147/147/1 145/149/1
f 149/145/1 147/147/1 156/138/1
f 156/138/1 147/147/1 160/134/1
f 66/189/33 64/1/1 49/203/37
f 60/194/1 58/197/1 56/195/35
f 48/205/38 45/6/3 66/189/33
f 64/1/1 55/3/1 49/203/37
