# Blender 4.4.1
# www.blender.org
mtllib Chicken.mtl
g Building_Chicken_Shop_メッシュ
v 1.103850 3.344573 -4.411479
v 1.103850 0.006731 -4.411479
v 1.103850 0.006731 -4.101769
v 1.103850 3.344573 -4.101769
v -1.103900 3.344573 -4.101769
v -1.103900 0.006731 -4.101769
v -1.103900 0.006731 -4.411479
v -1.103900 3.344573 -4.411479
v 0.930850 0.006427 -4.411479
v -0.930900 0.006427 -4.411479
v -0.930900 3.174661 -4.411479
v -0.930900 3.174661 -4.356584
v 0.930850 3.174661 -4.356584
v 0.930850 3.174661 -4.411479
v -0.930900 0.006427 -4.356584
v 0.930850 0.006427 -4.356584
v 4.961526 5.361038 -4.436370
v 4.961526 4.110972 -4.436370
v 4.961526 4.110971 -4.296537
v 4.961526 5.361038 -4.296537
v -4.961576 4.110971 -4.296539
v -4.961576 5.361038 -4.296539
v -4.961576 4.110972 -4.436371
v -4.961576 5.361038 -4.436371
v 5.554179 4.874600 -4.342552
v 5.554179 4.566139 -4.342552
v 5.554177 4.566138 4.746145
v 5.554177 4.874599 4.746145
v -5.554231 4.566138 4.746143
v -5.554231 4.874599 4.746143
v -5.554229 4.566139 -4.342554
v -5.554229 4.874600 -4.342554
v 5.005789 3.710643 -5.209131
v 5.005789 3.486966 -5.209131
v 5.005789 3.486966 -4.204199
v 5.005789 4.242949 -4.204199
v -5.005839 3.486964 -4.204200
v -5.005839 4.242947 -4.204200
v -5.005838 3.486964 -5.209133
v -5.005838 3.710641 -5.209133
v 0.817089 8.009790 -4.364975
v 0.817089 5.763958 -4.364975
v 0.817089 5.763958 -4.267317
v 0.817089 8.009790 -4.267316
v -0.825915 5.763958 -4.267317
v -0.825915 8.009790 -4.267317
v -0.825915 5.763958 -4.364975
v -0.825915 8.009790 -4.364975
v -2.444420 8.009790 -4.364976
v -2.444420 5.763958 -4.364976
v -2.444420 5.763958 -4.267317
v -2.444420 8.009790 -4.267317
v -4.087425 5.763958 -4.267317
v -4.087425 8.009790 -4.267317
v -4.087425 5.763958 -4.364976
v -4.087425 8.009790 -4.364976
v 4.092778 8.009790 -4.364974
v 4.092778 5.763958 -4.364975
v 4.092778 5.763958 -4.267316
v 4.092778 8.009790 -4.267316
v 2.449774 5.763958 -4.267316
v 2.449774 8.009790 -4.267316
v 2.449774 5.763958 -4.364975
v 2.449774 8.009790 -4.364975
v 4.092778 3.047373 -4.364975
v 4.092778 0.801541 -4.364975
v 4.092778 0.801541 -4.267317
v 4.092778 3.047373 -4.267316
v 2.449774 0.801541 -4.267317
v 2.449774 3.047373 -4.267317
v 2.449774 0.801541 -4.364975
v 2.449774 3.047373 -4.364975
v -2.444420 3.047373 -4.364976
v -2.444420 0.801541 -4.364977
v -2.444420 0.801541 -4.267318
v -2.444420 3.047373 -4.267317
v -4.087425 0.801541 -4.267318
v -4.087425 3.047373 -4.267318
v -4.087425 0.801541 -4.364977
v -4.087425 3.047373 -4.364977
v 5.554179 0.307427 -4.342552
v 5.554179 -0.001033 -4.342552
v 5.554177 -0.001034 4.746145
v 5.554177 0.307427 4.746145
v -5.554231 -0.001034 4.746143
v -5.554231 0.307427 4.746143
v -5.554229 -0.001033 -4.342554
v -5.554229 0.307427 -4.342554
v 5.499975 0.001262 -4.298203
v 5.499974 0.001261 4.701797
v -5.500026 0.001261 4.701795
v -5.500025 0.001262 -4.298205
v -2.444420 6.791045 -4.364976
v -2.444420 6.779671 -4.364976
v 2.449774 6.764868 -4.267316
v 2.449774 6.797851 -4.267316
v 5.499974 6.557258 4.701797
v -2.444420 6.778479 -4.311433
v 2.449774 6.812978 -4.319359
v 2.449774 6.766072 -4.321399
v 2.361665 6.565355 4.701797
v -0.507896 4.169425 4.701796
v -0.874724 3.863142 4.701796
v -5.554230 4.795732 2.422359
v -2.444420 6.762660 -4.267317
v -2.444420 6.777497 -4.267317
v 2.449774 6.767043 -4.364975
v 2.449774 6.826237 -4.364975
v -5.500026 1.908372 4.701795
v -5.500026 4.133530 4.701795
v -5.500026 6.585640 4.701795
v -3.344242 6.779819 -4.267317
v -3.361621 6.756063 -4.267317
v 3.360662 6.764693 -4.364975
v -5.500026 6.641168 2.208377
v -5.500026 5.253572 0.848644
v 0.817089 6.814498 -4.364975
v 0.817089 6.771256 -4.364975
v -4.087425 6.781735 -4.267317
v -5.500025 6.786068 -4.298205
v -4.087425 6.782923 -4.320667
v -2.617149 6.778629 -4.298204
v 5.499975 6.756959 -1.918252
v 0.817089 6.799195 -4.312334
v 0.817089 6.770054 -4.311066
v 2.629819 4.874599 2.353487
v 1.271597 4.874599 1.242215
v 0.817089 6.769080 -4.267317
v 0.817089 6.786110 -4.267317
v -4.087425 6.783911 -4.364976
v -0.088878 6.771419 -4.267317
v -3.188900 6.781592 -4.364976
v -0.825915 6.773319 -4.267317
v -0.825915 6.789719 -4.320371
v -0.825915 6.774516 -4.321032
v 0.441672 4.566139 -0.159593
v -3.734432 4.566138 3.257218
v -5.554230 4.874599 2.151042
v 4.092778 6.838049 -4.364975
v 4.092778 6.762803 -4.364975
v 0.791837 4.566138 4.746144
v 4.092778 6.823047 -4.313370
v 4.092778 6.761595 -4.310698
v -0.825915 6.775494 -4.364975
v -0.825915 6.802683 -4.364975
v 0.078778 6.773161 -4.364975
v 4.092778 6.760628 -4.267316
v 4.092778 6.809662 -4.267316
v 5.499975 6.828760 -4.298203
v 3.210146 6.803316 -4.267316
v 3.180639 6.762982 -4.267316
v 1.521702 4.874599 4.746144
v 1.238122 4.754749 4.746144
v -5.554230 4.566138 3.212207
v -0.143816 4.172043 4.701796
v 1.348656 4.874599 2.321797
v 0.693377 4.566138 3.366749
vn 1.0000 -0.0000 -0.0000
vn -1.0000 -0.0000 -0.0000
vn -0.0000 -0.0000 1.0000
vn -0.0000 1.0000 -0.0000
vn -0.0000 -0.0000 -1.0000
vn -0.0000 -1.0000 -0.0000
vn -0.0000 0.8837 -0.4681
vt 0.420983 0.900363
vt 0.416253 0.895703
vt 0.412311 0.888046
vt 0.427334 0.902717
vt 0.413962 0.900384
vt 0.391986 0.888603
vt 0.408020 0.895225
vt 0.406194 0.903853
vt 0.378489 0.883858
vt 0.411095 0.887745
vt 0.405172 0.903854
vt 0.422267 0.900943
vt 0.403260 0.907950
vt 0.420320 0.900080
vt 0.377341 0.883198
vt 0.412318 0.883198
vt 0.000000 0.000000
vt 0.988962 0.724994
vt 0.006727 0.601257
vt 0.988962 0.601257
vt 0.006727 0.724994
vt 0.471094 0.873438
vt 0.521094 0.923437
vt 0.471094 0.923437
vt 0.521094 0.873438
vt 0.490521 0.892864
vt 0.489244 0.873437
vt 0.479532 0.923437
vt 0.485370 0.873438
vt 0.483878 0.886221
vt 0.494106 0.896449
vt 0.512655 0.923437
vt 0.513505 0.895316
vt 0.501817 0.904161
vt 0.507931 0.910275
vt 0.506817 0.873438
vt 0.766437 0.402141
vt 0.816437 0.452141
vt 0.766437 0.452141
vt 0.816437 0.402141
vt 0.402216 0.243861
vt 0.402216 0.122193
vt 0.402216 0.123731
vt 0.493268 0.119401
vt 0.402216 0.120878
vt 0.567343 0.243861
vt 0.567343 0.121240
vt 0.567343 0.119592
vt 0.567343 0.122543
vt 0.402216 0.018148
vt 0.567343 0.018148
vt 0.402209 0.243933
vt 0.402209 0.120182
vt 0.402209 0.121445
vt 0.492644 0.120317
vt 0.402209 0.120083
vt 0.567336 0.243933
vt 0.567336 0.120629
vt 0.567336 0.120509
vt 0.402209 0.018220
vt 0.567336 0.018220
vt 0.402190 0.244017
vt 0.402190 0.124745
vt 0.402190 0.126253
vt 0.490898 0.122762
vt 0.402191 0.123400
vt 0.567317 0.244017
vt 0.567317 0.123733
vt 0.567317 0.122213
vt 0.567317 0.125066
vt 0.402190 0.018304
vt 0.567317 0.018304
vt 0.401348 0.245205
vt 0.401348 0.017075
vt 0.568242 0.017075
vt 0.568242 0.245205
vt 0.401879 0.244508
vt 0.401879 0.017561
vt 0.567909 0.017561
vt 0.567909 0.244508
vt 0.433984 0.881250
vt 0.483984 0.931250
vt 0.433984 0.931250
vt 0.483984 0.881250
vt 0.975235 0.307949
vt 0.804342 0.017131
vt 0.975235 0.017131
vt 0.804342 0.307949
vt 0.234766 0.199609
vt 0.284766 0.249609
vt 0.234766 0.249609
vt 0.284766 0.199609
vt 0.567317 0.119019
vt 0.567317 0.118898
vt 0.567317 0.119117
vt 0.475770 0.118881
vt 0.402190 0.118691
vt 0.249031 0.213874
vt 0.260419 0.226904
vt 0.234766 0.213918
vt 0.262074 0.226918
vt 0.263742 0.228585
vt 0.402216 0.119385
vt 0.402216 0.119264
vt 0.402216 0.119166
vt 0.494391 0.117929
vt 0.567343 0.119712
vt 0.567343 0.119811
vt 0.476418 0.119576
vt 0.507757 0.904508
vt 0.521094 0.905287
vt 0.247988 0.212831
vt 0.234766 0.212440
vt 0.284766 0.213918
vt 0.402209 0.120302
vt 0.402209 0.118592
vt 0.284766 0.213764
vt 0.284766 0.227113
vt 0.284766 0.239227
vt 0.248618 0.213462
vt 0.234766 0.227113
vt 0.234766 0.213764
vt 0.256172 0.221016
vt 0.234766 0.239227
vt 0.492530 0.923437
vt 0.247870 0.212713
vt 0.234766 0.212673
vt 0.284766 0.212673
vt 0.567336 0.120728
vt 0.284766 0.212440
vt 0.477032 0.120495
vt 0.512903 0.915246
vt 0.521094 0.894873
vt 0.402191 0.118569
vt 0.402191 0.118472
vt 0.493863 0.118709
s 1
usemtl Building_Chicken_Shop
f 1/1/1 3/2/1 2/3/1
f 1/1/1 4/4/1 3/2/1
f 5/5/2 7/6/2 6/7/2
f 5/5/2 8/8/2 7/6/2
f 2/3/3 10/9/3 9/10/3
f 2/3/3 7/6/3 10/9/3
f 8/8/4 4/4/4 1/1/4
f 8/8/4 5/5/4 4/4/4
f 7/6/5 11/11/5 10/9/5
f 1/1/5 2/3/5 9/10/5
f 11/11/6 13/12/6 12/13/6
f 11/11/6 14/14/6 13/12/6
f 10/9/1 12/13/1 15/15/1
f 10/9/1 11/11/1 12/13/1
f 14/14/2 16/16/2 13/12/2
f 14/14/2 9/10/2 16/16/2
f 17/17/1 19/17/1 18/17/1
f 17/17/1 20/17/1 19/17/1
f 20/17/3 21/17/3 19/17/3
f 20/17/3 22/17/3 21/17/3
f 22/17/2 23/17/2 21/17/2
f 22/17/2 24/17/2 23/17/2
f 24/18/5 18/19/5 23/20/5
f 24/18/5 17/21/5 18/19/5
f 18/17/6 21/17/6 23/17/6
f 18/17/6 19/17/6 21/17/6
f 24/17/4 20/17/4 17/17/4
f 24/17/4 22/17/4 20/17/4
f 25/22/1 27/23/1 26/24/1
f 25/22/1 28/25/1 27/23/1
f 153/26/3 27/24/3 28/22/3
f 28/22/3 152/27/3 153/26/3
f 30/22/2 154/28/2 29/24/2
f 30/22/2 138/29/2 104/30/2
f 32/22/5 26/23/5 31/24/5
f 32/22/5 25/25/5 26/23/5
f 136/31/6 154/32/6 31/24/6
f 27/25/6 157/33/6 136/31/6
f 127/34/4 126/35/4 25/24/4
f 138/36/4 127/34/4 32/22/4
f 33/37/1 35/38/1 34/39/1
f 33/37/1 36/40/1 35/38/1
f 36/37/3 37/38/3 35/39/3
f 36/37/3 38/40/3 37/38/3
f 38/37/2 39/38/2 37/39/2
f 38/37/2 40/40/2 39/38/2
f 40/37/5 34/38/5 39/39/5
f 40/37/5 33/40/5 34/38/5
f 34/37/6 37/38/6 39/39/6
f 34/37/6 35/40/6 37/38/6
f 40/37/7 36/38/7 33/39/7
f 40/37/7 38/40/7 36/38/7
f 41/41/1 124/42/1 117/43/1
f 44/41/1 124/42/1 41/41/1
f 44/41/3 131/44/3 129/45/3
f 46/46/3 131/44/3 44/41/3
f 46/46/2 134/47/2 133/48/2
f 46/46/2 145/49/2 134/47/2
f 42/50/6 45/51/6 47/51/6
f 42/50/6 43/50/6 45/51/6
f 49/52/1 98/53/1 93/54/1
f 52/52/1 98/53/1 49/52/1
f 52/52/3 112/55/3 106/56/3
f 54/57/3 112/55/3 52/52/3
f 54/57/2 121/58/2 119/59/2
f 56/57/2 121/58/2 54/57/2
f 50/60/6 53/61/6 55/61/6
f 50/60/6 51/60/6 53/61/6
f 56/57/4 52/52/4 49/52/4
f 56/57/4 54/57/4 52/52/4
f 57/62/1 142/63/1 139/64/1
f 60/62/1 142/63/1 57/62/1
f 60/62/3 150/65/3 148/66/3
f 62/67/3 150/65/3 60/62/3
f 62/67/2 99/68/2 96/69/2
f 62/67/2 108/70/2 99/68/2
f 58/71/6 61/72/6 63/72/6
f 58/71/6 59/71/6 61/72/6
f 65/73/1 67/74/1 66/74/1
f 65/73/1 68/73/1 67/74/1
f 68/73/3 69/75/3 67/74/3
f 68/73/3 70/76/3 69/75/3
f 70/76/2 71/75/2 69/75/2
f 70/76/2 72/76/2 71/75/2
f 72/76/5 66/74/5 71/75/5
f 72/76/5 65/73/5 66/74/5
f 66/74/6 69/75/6 71/75/6
f 66/74/6 67/74/6 69/75/6
f 72/76/4 68/73/4 65/73/4
f 72/76/4 70/76/4 68/73/4
f 73/77/1 75/78/1 74/78/1
f 73/77/1 76/77/1 75/78/1
f 76/77/3 77/79/3 75/78/3
f 76/77/3 78/80/3 77/79/3
f 78/80/2 79/79/2 77/79/2
f 78/80/2 80/80/2 79/79/2
f 80/80/5 74/78/5 79/79/5
f 80/80/5 73/77/5 74/78/5
f 74/78/6 77/79/6 79/79/6
f 74/78/6 75/78/6 77/79/6
f 80/80/4 76/77/4 73/77/4
f 80/80/4 78/80/4 76/77/4
f 81/81/1 83/82/1 82/83/1
f 81/81/1 84/84/1 83/82/1
f 84/81/3 85/82/3 83/83/3
f 84/81/3 86/84/3 85/82/3
f 86/81/2 87/82/2 85/83/2
f 86/81/2 88/84/2 87/82/2
f 88/81/5 82/82/5 87/83/5
f 88/81/5 81/84/5 82/82/5
f 82/81/6 85/82/6 87/83/6
f 82/81/6 83/84/6 85/82/6
f 88/81/4 84/82/4 81/83/4
f 88/81/4 86/84/4 84/82/4
f 4/4/3 6/7/3 3/2/3
f 4/4/3 5/5/3 6/7/3
f 2/3/6 6/7/6 7/6/6
f 2/3/6 3/2/6 6/7/6
f 9/10/4 15/15/4 16/16/4
f 9/10/4 10/9/4 15/15/4
f 8/8/5 14/14/5 11/11/5
f 7/6/5 8/8/5 11/11/5
f 8/8/5 1/1/5 14/14/5
f 1/1/5 9/10/5 14/14/5
f 12/85/5 16/86/5 15/87/5
f 12/85/5 13/88/5 16/86/5
f 89/89/6 91/90/6 92/91/6
f 89/89/6 90/92/6 91/90/6
f 96/69/2 100/93/2 95/94/2
f 100/93/2 61/72/2 95/94/2
f 99/68/2 107/95/2 100/93/2
f 100/93/2 107/95/2 63/72/2
f 114/96/5 63/72/5 107/95/5
f 114/96/5 140/97/5 58/71/5
f 101/98/3 155/99/3 97/100/3
f 155/99/3 102/101/3 103/102/3
f 91/90/3 97/100/3 155/99/3
f 124/42/1 118/103/1 117/43/1
f 125/104/1 42/50/1 118/103/1
f 129/45/1 125/104/1 124/42/1
f 125/104/1 128/105/1 43/50/1
f 129/45/3 131/44/3 128/105/3
f 131/44/3 43/50/3 128/105/3
f 131/44/3 133/48/3 45/51/3
f 119/59/3 113/106/3 112/55/3
f 135/107/2 45/51/2 133/48/2
f 135/107/2 133/48/2 134/47/2
f 134/47/2 144/108/2 135/107/2
f 135/107/2 144/108/2 47/51/2
f 146/109/5 47/51/5 144/108/5
f 153/26/3 30/25/3 29/23/3
f 146/109/5 118/103/5 42/50/5
f 138/29/2 31/23/2 104/30/2
f 127/34/4 156/110/4 126/35/4
f 126/35/4 152/111/4 28/23/4
f 156/110/4 30/25/4 152/111/4
f 123/112/1 89/91/1 149/113/1
f 123/112/1 97/114/1 90/90/1
f 93/54/1 98/53/1 94/115/1
f 98/53/1 50/60/1 94/115/1
f 98/53/1 105/116/1 51/60/1
f 105/116/1 98/53/1 106/56/1
f 111/117/3 102/101/3 101/98/3
f 110/118/3 103/102/3 102/101/3
f 103/102/3 109/119/3 91/90/3
f 112/55/3 105/116/3 106/56/3
f 113/106/3 51/60/3 105/116/3
f 115/120/2 110/121/2 111/122/2
f 116/123/2 91/91/2 109/124/2
f 141/125/3 153/26/3 29/23/3
f 122/126/5 92/91/5 120/127/5
f 120/128/2 116/123/2 115/120/2
f 121/58/2 53/61/2 119/59/2
f 121/58/2 130/129/2 55/61/2
f 154/28/2 104/30/2 31/23/2
f 122/126/5 149/130/5 89/90/5
f 132/131/5 55/61/5 130/129/5
f 132/131/5 94/115/5 50/60/5
f 154/32/6 137/132/6 29/23/6
f 136/31/6 157/33/6 137/132/6
f 137/132/6 141/133/6 29/23/6
f 142/63/1 140/97/1 139/64/1
f 143/134/1 58/71/1 140/97/1
f 148/66/1 143/134/1 142/63/1
f 143/134/1 147/135/1 59/71/1
f 150/65/3 147/135/3 148/66/3
f 151/136/3 59/71/3 147/135/3
f 96/69/3 151/136/3 150/65/3
f 151/136/3 95/94/3 61/72/3
f 153/26/3 141/125/3 27/24/3
f 30/22/2 104/30/2 154/28/2
f 31/24/6 26/22/6 136/31/6
f 136/31/6 137/132/6 154/32/6
f 136/31/6 26/22/6 27/25/6
f 27/25/6 141/133/6 157/33/6
f 25/24/4 32/22/4 127/34/4
f 126/35/4 28/23/4 25/24/4
f 138/36/4 156/110/4 127/34/4
f 44/41/1 129/45/1 124/42/1
f 46/46/3 133/48/3 131/44/3
f 46/46/2 48/46/2 145/49/2
f 52/52/1 106/56/1 98/53/1
f 54/57/3 119/59/3 112/55/3
f 56/57/2 130/129/2 121/58/2
f 60/62/1 148/66/1 142/63/1
f 62/67/3 96/69/3 150/65/3
f 62/67/2 64/67/2 108/70/2
f 96/69/2 99/68/2 100/93/2
f 100/93/2 63/72/2 61/72/2
f 99/68/2 108/70/2 107/95/2
f 114/96/5 58/71/5 63/72/5
f 101/98/3 102/101/3 155/99/3
f 155/99/3 103/102/3 91/90/3
f 91/90/3 90/91/3 97/100/3
f 124/42/1 125/104/1 118/103/1
f 125/104/1 43/50/1 42/50/1
f 129/45/1 128/105/1 125/104/1
f 131/44/3 45/51/3 43/50/3
f 119/59/3 53/61/3 113/106/3
f 135/107/2 47/51/2 45/51/2
f 134/47/2 145/49/2 144/108/2
f 146/109/5 42/50/5 47/51/5
f 153/26/3 152/27/3 30/25/3
f 138/29/2 32/25/2 31/23/2
f 126/35/4 156/110/4 152/111/4
f 156/110/4 138/36/4 30/25/4
f 123/112/1 90/90/1 89/91/1
f 98/53/1 51/60/1 50/60/1
f 111/117/3 110/118/3 102/101/3
f 110/118/3 109/119/3 103/102/3
f 112/55/3 113/106/3 105/116/3
f 113/106/3 53/61/3 51/60/3
f 115/120/2 116/123/2 110/121/2
f 109/124/2 110/121/2 116/123/2
f 116/123/2 92/90/2 91/91/2
f 122/126/5 89/90/5 92/91/5
f 120/128/2 92/90/2 116/123/2
f 121/58/2 55/61/2 53/61/2
f 132/131/5 50/60/5 55/61/5
f 137/132/6 157/33/6 141/133/6
f 142/63/1 143/134/1 140/97/1
f 143/134/1 59/71/1 58/71/1
f 148/66/1 147/135/1 143/134/1
f 150/65/3 151/136/3 147/135/3
f 151/136/3 61/72/3 59/71/3
f 96/69/3 95/94/3 151/136/3
g Building_Chicken_Shop.001_メッシュ
v 4.264569 8.371255 -4.849885
v 4.264569 8.242560 -4.849885
v 4.264569 8.242560 -4.271694
v 4.264569 8.677519 -4.271694
v 2.277794 8.242560 -4.271695
v 2.277794 8.677519 -4.271695
v 2.277794 8.242560 -4.849886
v 2.277794 8.371255 -4.849886
v -2.272289 8.371253 -4.849885
v -2.272289 8.242560 -4.849885
v -2.272289 8.242560 -4.271695
v -2.272289 8.677517 -4.271695
v -4.259064 8.242559 -4.271695
v -4.259064 8.677517 -4.271695
v -4.259063 8.242559 -4.849886
v -4.259063 8.371253 -4.849886
v 0.993363 8.371253 -4.849885
v 0.993363 8.242560 -4.849885
v 0.993363 8.242560 -4.271694
v 0.993363 8.677518 -4.271694
v -0.993413 8.242560 -4.271695
v -0.993413 8.677517 -4.271695
v -0.993413 8.242560 -4.849885
v -0.993413 8.371253 -4.849885
v 0.817089 8.009790 -4.364975
v 0.817089 8.009790 -4.267316
v -0.825915 8.009790 -4.267317
v -0.825915 8.009790 -4.364975
v -2.444420 8.009790 -4.364976
v -4.087425 8.009790 -4.267317
v -4.087425 8.009790 -4.364976
v 4.092778 8.009790 -4.364974
v 4.092778 8.009790 -4.267316
v 2.449774 8.009790 -4.267316
v 2.449774 8.009790 -4.364975
v 5.499975 9.185678 -4.298203
v 5.499974 9.185678 4.701797
v -5.500026 9.185678 4.701796
v -5.500025 9.185678 -4.298204
v 5.609368 9.185678 -4.387707
v -5.609418 9.185678 -4.387709
v 5.609368 9.756866 -4.387707
v -5.609418 9.756866 -4.387709
v -5.609419 9.185678 4.791300
v 5.609366 9.185678 4.791301
v 4.966120 9.756866 -3.861413
v -4.966170 9.756866 -3.861415
v -5.609419 9.756866 4.791300
v 5.609366 9.756866 4.791301
v 4.966120 9.456914 -3.861413
v -4.966170 9.456914 -3.861415
v -4.966171 9.756866 4.265006
v 4.966119 9.756866 4.265007
v 4.966119 9.456914 4.265007
v -4.966171 9.456914 4.265006
v -2.444420 6.791045 -4.364976
v -2.444420 6.779671 -4.364976
v 5.499974 6.557258 4.701797
v 2.361665 6.565355 4.701797
v 2.449774 6.767043 -4.364975
v 2.449774 6.826237 -4.364975
v -5.500026 6.585640 4.701795
v 3.360662 6.764693 -4.364975
v 3.311106 6.832431 -4.364975
v -5.500026 6.641168 2.208377
v 0.817089 6.814498 -4.364975
v 0.817089 6.771256 -4.364975
v -4.087425 6.781735 -4.267317
v -5.500025 6.786068 -4.298205
v -2.617149 6.778629 -4.298204
v 5.499975 6.756959 -1.918252
v -4.087425 6.783911 -4.364976
v -3.188900 6.781592 -4.364976
v -0.825915 6.773319 -4.267317
v 4.092778 6.838049 -4.364975
v 4.092778 6.762803 -4.364975
v -0.825915 6.775494 -4.364975
v -0.825915 6.802683 -4.364975
v 0.078778 6.773161 -4.364975
v 0.052559 6.809000 -4.364975
v 5.499975 6.828760 -4.298203
vn 1.0000 -0.0000 -0.0000
vn -0.0000 -0.0000 1.0000
vn -1.0000 -0.0000 -0.0000
vn -0.0000 -0.0000 -1.0000
vn -0.0000 -1.0000 -0.0000
vn -0.0000 0.8837 -0.4681
vn -0.0000 1.0000 -0.0000
vt 0.766437 0.402141
vt 0.816437 0.452141
vt 0.766437 0.452141
vt 0.816437 0.402141
vt 0.567343 0.243861
vt 0.479053 0.123178
vt 0.567343 0.122543
vt 0.402216 0.243861
vt 0.567336 0.243933
vt 0.477032 0.120495
vt 0.567336 0.120728
vt 0.402209 0.243933
vt 0.567317 0.244017
vt 0.480751 0.125688
vt 0.567317 0.125066
vt 0.402190 0.244017
vt 0.234766 0.199609
vt 0.247988 0.212831
vt 0.234766 0.212440
vt 0.284766 0.199609
vt 0.249031 0.213874
vt 0.234766 0.213918
vt 0.248618 0.213462
vt 0.234766 0.213764
vt 0.247870 0.212713
vt 0.234766 0.212673
vt 0.289453 0.891016
vt 0.339453 0.941016
vt 0.289453 0.941016
vt 0.339453 0.891016
vt 0.668359 0.152734
vt 0.718359 0.202734
vt 0.668359 0.202734
vt 0.718359 0.152734
vt 0.567317 0.119117
vt 0.402190 0.126253
vt 0.475770 0.118881
vt 0.567343 0.119811
vt 0.402216 0.123731
vt 0.476418 0.119576
vt 0.402209 0.120302
vt 0.402209 0.121445
vt 0.284766 0.213918
vt 0.284766 0.213764
vt 0.284766 0.212673
vt 0.284766 0.212440
vt 0.402190 0.118691
vt 0.402216 0.119385
s 1
usemtl Building_Chicken_Shop
f 158/137/8 160/138/8 159/139/8
f 158/137/8 161/140/8 160/138/8
f 161/137/9 162/138/9 160/139/9
f 161/137/9 163/140/9 162/138/9
f 163/137/10 164/138/10 162/139/10
f 163/137/10 165/140/10 164/138/10
f 165/137/11 159/138/11 164/139/11
f 165/137/11 158/140/11 159/138/11
f 159/137/12 162/138/12 164/139/12
f 159/137/12 160/140/12 162/138/12
f 165/137/13 161/138/13 158/139/13
f 165/137/13 163/140/13 161/138/13
f 166/137/8 168/138/8 167/139/8
f 166/137/8 169/140/8 168/138/8
f 169/137/9 170/138/9 168/139/9
f 169/137/9 171/140/9 170/138/9
f 171/137/10 172/138/10 170/139/10
f 171/137/10 173/140/10 172/138/10
f 173/137/11 167/138/11 172/139/11
f 173/137/11 166/140/11 167/138/11
f 167/137/12 170/138/12 172/139/12
f 167/137/12 168/140/12 170/138/12
f 173/137/13 169/138/13 166/139/13
f 173/137/13 171/140/13 169/138/13
f 174/137/8 176/138/8 175/139/8
f 174/137/8 177/140/8 176/138/8
f 177/137/9 178/138/9 176/139/9
f 177/137/9 179/140/9 178/138/9
f 179/137/10 180/138/10 178/139/10
f 179/137/10 181/140/10 180/138/10
f 181/137/11 175/138/11 180/139/11
f 181/137/11 174/140/11 175/138/11
f 175/137/12 178/138/12 180/139/12
f 175/137/12 176/140/12 178/138/12
f 181/137/13 177/138/13 174/139/13
f 181/137/13 179/140/13 177/138/13
f 185/141/11 237/142/11 235/143/11
f 182/144/11 237/142/11 185/141/11
f 185/141/14 183/144/14 182/144/14
f 185/141/14 184/141/14 183/144/14
f 188/145/11 230/146/11 229/147/11
f 186/148/11 230/146/11 188/145/11
f 192/149/11 221/150/11 218/151/11
f 189/152/11 221/150/11 192/149/11
f 192/149/14 190/152/14 189/152/14
f 192/149/14 191/149/14 190/152/14
f 193/153/8 228/154/8 238/155/8
f 194/156/8 228/154/8 193/153/8
f 194/153/9 216/157/9 215/158/9
f 195/156/9 216/157/9 194/153/9
f 195/153/10 222/159/10 219/160/10
f 196/156/10 222/159/10 195/153/10
f 196/153/11 227/161/11 226/162/11
f 193/156/11 227/161/11 196/153/11
f 193/163/12 198/164/12 197/165/12
f 193/163/12 196/166/12 198/164/12
f 197/163/11 200/164/11 199/165/11
f 197/163/11 198/166/11 200/164/11
f 196/163/12 201/164/12 198/165/12
f 196/163/12 195/166/12 201/164/12
f 195/163/12 202/164/12 201/165/12
f 195/163/12 194/166/12 202/164/12
f 194/163/12 197/164/12 202/165/12
f 194/163/12 193/166/12 197/164/12
f 199/163/14 204/164/14 203/165/14
f 199/163/14 200/166/14 204/164/14
f 198/163/10 205/164/10 200/165/10
f 198/163/10 201/166/10 205/164/10
f 201/163/9 206/164/9 205/165/9
f 201/163/9 202/166/9 206/164/9
f 202/163/8 199/164/8 206/165/8
f 202/163/8 197/166/8 199/164/8
f 203/163/9 208/164/9 207/165/9
f 203/163/9 204/166/9 208/164/9
f 200/163/14 209/164/14 204/165/14
f 200/163/14 205/166/14 209/164/14
f 205/163/14 210/164/14 209/165/14
f 205/163/14 206/166/14 210/164/14
f 206/163/14 203/164/14 210/165/14
f 206/163/14 199/166/14 203/164/14
f 208/167/14 211/168/14 207/169/14
f 208/167/14 212/170/14 211/168/14
f 204/163/8 212/164/8 208/165/8
f 204/163/8 209/166/8 212/164/8
f 209/163/11 211/164/11 212/165/11
f 209/163/11 210/166/11 211/164/11
f 210/163/10 207/164/10 211/165/10
f 210/163/10 203/166/10 207/164/10
f 221/150/11 217/171/11 218/151/11
f 232/172/11 220/173/11 221/150/11
f 237/142/11 234/174/11 235/143/11
f 223/175/11 236/176/11 237/142/11
f 214/177/11 230/146/11 213/178/11
f 182/144/11 223/175/11 237/142/11
f 186/148/11 213/178/11 230/146/11
f 189/152/11 232/172/11 221/150/11
f 194/156/8 215/179/8 228/154/8
f 195/156/9 219/180/9 216/157/9
f 196/156/10 226/181/10 222/159/10
f 193/156/11 238/182/11 227/161/11
f 221/150/11 220/173/11 217/171/11
f 232/172/11 233/183/11 220/173/11
f 237/142/11 236/176/11 234/174/11
f 223/175/11 224/184/11 236/176/11
l 231 184
l 225 187
l 187 188
