# Blender 4.4.1
# www.blender.org
mtllib Drug.mtl
g Building_Drug_Store_メッシュ
v 4.232263 0.802550 4.092783
v 4.232263 0.802550 2.449779
v 4.134604 0.802550 2.449779
v 4.134604 0.802550 4.092783
v 4.232263 0.802550 -2.444413
v 4.134604 0.802550 -2.444413
v 4.134604 0.802550 -4.087416
v 4.232263 0.802550 -4.087416
v 4.278765 0.007741 1.103856
v 3.969056 0.007741 1.103856
v 3.969056 0.007741 -1.103894
v 4.278765 0.007741 -1.103894
v 4.278765 0.007436 0.930856
v 4.278765 0.007436 -0.930893
v 4.223870 0.007436 -0.930893
v 4.223870 0.007436 0.930856
v 4.209839 0.308436 5.554184
v 4.209839 -0.000025 5.554184
v -4.878856 -0.000024 5.554184
v -4.878856 0.308437 5.554184
v -4.878857 -0.000024 -5.554222
v -4.878857 0.308437 -5.554222
v 4.209838 -0.000025 -5.554222
v 4.209839 0.308436 -5.554222
v 4.165491 0.002270 5.499981
v -4.834507 0.002270 5.499981
v -4.834508 0.002270 -5.500018
v 4.165490 0.002270 -5.500018
v -4.834508 2.283188 -5.500018
v 4.232263 1.471659 4.092783
v 0.194709 1.958570 -5.500018
v 4.163892 1.476072 4.092783
v 4.278765 1.591251 -1.103894
v 4.134604 1.477962 4.092783
v 4.134604 1.504606 2.963389
v 4.165491 1.702268 -5.500018
v 4.134604 1.516722 2.449779
v 4.165491 1.532314 1.704256
v 4.201395 1.512411 2.449779
v 4.232263 1.510418 2.449779
v 4.232263 1.483408 3.594681
v 4.232263 1.625876 -2.444413
v 4.134604 1.656207 -3.462899
v 3.969056 1.586605 -0.059585
v 4.170579 1.629858 -2.444413
v 4.278765 1.589213 -1.017530
v 4.232263 1.640335 -3.057319
v 4.278765 1.587169 -0.930893
v 4.134604 1.632179 -2.444413
v 4.278765 1.541373 1.010353
v 4.134604 1.670938 -4.087416
v 4.194670 1.667063 -4.087416
v 4.223870 1.568432 0.013568
v 4.232263 1.664637 -4.087416
v 4.165491 1.442771 5.499981
v 4.278765 1.539167 1.103856
v -1.206822 1.789536 5.499981
v 4.112151 1.549923 1.103856
v 4.251363 1.588937 -0.930893
v 4.223870 1.590711 -0.930893
v 4.250512 1.545072 0.930856
v -4.834507 2.023688 5.499981
v 3.969056 1.559158 1.103856
v 4.223870 1.546792 0.930856
v -4.834508 2.157080 -0.154379
v 3.969056 1.611243 -1.103894
v 4.278765 1.543249 0.930856
v 4.130950 1.600792 -1.103894
vn -0.0000 -1.0000 -0.0000
vn -1.0000 -0.0000 -0.0000
vn 1.0000 -0.0000 -0.0000
vn -0.0000 -0.0000 1.0000
vn -0.0000 -0.0000 -1.0000
vn -0.0000 1.0000 -0.0000
vt 0.518932 0.230318
vt 0.510715 0.220524
vt 0.520014 0.211014
vt 0.509717 0.221568
vt 0.699527 0.855012
vt 0.694952 0.854446
vt 0.699363 0.854971
vt 0.696778 0.855087
vt 0.697668 0.856117
vt 0.696625 0.856072
vt 0.694796 0.854356
vt 0.696752 0.855794
vt 0.500975 0.211006
vt 0.510156 0.202289
vt 0.519187 0.211006
vt 0.508994 0.201559
vt 0.408594 0.879297
vt 0.458594 0.929297
vt 0.408594 0.929297
vt 0.458594 0.879297
vt 0.698947 0.855983
vt 0.700060 0.856048
vt 0.699528 0.854356
vt 0.697689 0.856066
vt 0.332328 0.222953
vt 0.390328 0.280953
vt 0.332328 0.280953
vt 0.390328 0.222953
vt 0.366950 0.257575
vt 0.332328 0.262111
vt 0.516684 0.213779
vt 0.510322 0.220283
vt 0.390328 0.254512
vt 0.513789 0.211014
vt 0.362142 0.252767
vt 0.332328 0.254512
vt 0.451971 0.086116
vt 0.569067 0.016481
vt 0.569067 0.088879
vt 0.390328 0.251117
vt 0.401028 0.084915
vt 0.401028 0.016481
vt 0.364739 0.255364
vt 0.332328 0.251117
vt 0.509968 0.201512
vt 0.509241 0.201073
vt 0.390328 0.258716
vt 0.510465 0.201938
vt 0.370314 0.260939
vt 0.332328 0.258716
vt 0.463299 0.102813
vt 0.567508 0.018059
vt 0.567508 0.105272
vt 0.390328 0.262111
vt 0.401295 0.101351
vt 0.401295 0.018059
vt 0.700182 0.855523
vt 0.700053 0.855465
vt 0.699968 0.855780
vt 0.700183 0.856463
vt 0.700757 0.856489
vt 0.699333 0.856319
vt 0.888080 0.160241
vt 0.975835 0.015201
vt 0.975835 0.162311
vt 0.699977 0.855756
vt 0.500317 0.203930
vt 0.505379 0.197929
vt 0.698197 0.855848
vt 0.516019 0.207301
vt 0.519648 0.203597
vt 0.513047 0.230318
vt 0.700356 0.856339
vt 0.700065 0.855777
vt 0.506557 0.224192
vt 0.509345 0.221339
vt 0.510016 0.220613
vt 0.802850 0.158230
vt 0.802850 0.015201
vt 0.696549 0.856030
s 1
usemtl Building_Drug_Store
f 1/1/1 3/2/1 2/3/1
f 1/1/1 4/4/1 3/2/1
f 9/5/2 14/6/2 13/7/2
f 9/5/2 12/8/2 14/6/2
f 46/9/3 14/6/3 12/8/3
f 59/10/4 15/11/4 14/6/4
f 14/6/4 48/12/4 59/10/4
f 5/13/1 7/14/1 8/15/1
f 5/13/1 6/16/1 7/14/1
f 17/17/4 19/18/4 18/19/4
f 17/17/4 20/20/4 19/18/4
f 20/17/2 21/18/2 19/19/2
f 20/17/2 22/20/2 21/18/2
f 22/17/5 23/18/5 21/19/5
f 22/17/5 24/20/5 23/18/5
f 24/17/3 18/18/3 23/19/3
f 24/17/3 17/20/3 18/18/3
f 18/17/1 21/18/1 23/19/1
f 18/17/1 19/20/1 21/18/1
f 24/17/6 20/18/6 17/19/6
f 24/17/6 22/20/6 20/18/6
f 9/5/1 11/21/1 12/8/1
f 9/5/1 10/22/1 11/21/1
f 13/7/6 15/11/6 16/23/6
f 13/7/6 14/6/6 15/11/6
f 12/8/3 33/24/3 46/9/3
f 25/25/1 27/26/1 28/27/1
f 25/25/1 26/28/1 27/26/1
f 57/29/4 25/27/4 55/30/4
f 39/31/5 3/2/5 37/32/5
f 57/29/4 62/33/4 26/26/4
f 39/31/5 40/34/5 2/3/5
f 65/35/2 26/27/2 62/36/2
f 41/37/3 2/38/3 40/39/3
f 65/35/2 29/40/2 27/26/2
f 41/37/3 30/41/3 1/42/3
f 31/43/5 27/27/5 29/44/5
f 43/45/2 6/16/2 49/46/2
f 31/43/5 36/47/5 28/26/5
f 43/45/2 51/48/2 7/14/2
f 38/49/3 28/27/3 36/50/3
f 47/51/3 8/52/3 54/53/3
f 38/49/3 55/54/3 25/26/3
f 47/51/3 42/55/3 5/56/3
f 64/57/5 61/58/5 16/23/5
f 67/59/5 16/23/5 61/58/5
f 44/60/2 10/22/2 63/61/2
f 44/60/2 66/62/2 11/21/2
f 53/63/3 15/64/3 60/65/3
f 50/66/3 9/5/3 13/7/3
f 42/67/4 6/16/4 5/13/4
f 45/68/4 49/46/4 6/16/4
f 68/69/5 11/21/5 66/62/5
f 52/70/5 7/14/5 51/48/5
f 52/70/5 54/71/5 8/15/5
f 30/72/4 4/4/4 1/1/4
f 67/59/3 50/66/3 13/7/3
f 58/73/4 9/5/4 56/74/4
f 32/75/4 34/76/4 4/4/4
f 58/73/4 63/61/4 10/22/4
f 35/77/2 4/4/2 34/76/2
f 53/63/3 64/78/3 16/79/3
f 68/69/5 33/24/5 12/8/5
f 35/77/2 37/32/2 3/2/2
f 46/9/3 48/12/3 14/6/3
f 59/10/4 60/80/4 15/11/4
f 57/29/4 26/26/4 25/27/4
f 39/31/5 2/3/5 3/2/5
f 65/35/2 27/26/2 26/27/2
f 41/37/3 1/42/3 2/38/3
f 31/43/5 28/26/5 27/27/5
f 43/45/2 7/14/2 6/16/2
f 38/49/3 25/26/3 28/27/3
f 47/51/3 5/56/3 8/52/3
f 67/59/5 13/7/5 16/23/5
f 44/60/2 11/21/2 10/22/2
f 53/63/3 16/79/3 15/64/3
f 50/66/3 56/74/3 9/5/3
f 42/67/4 45/68/4 6/16/4
f 68/69/5 12/8/5 11/21/5
f 52/70/5 8/15/5 7/14/5
f 30/72/4 32/75/4 4/4/4
f 58/73/4 10/22/4 9/5/4
f 35/77/2 3/2/2 4/4/2
g Building_Drug_Store.001_メッシュ
v 4.206508 6.498978 5.603391
v 4.206508 4.995751 5.603391
v 4.058303 4.995751 5.603391
v 4.058303 6.498978 5.603391
v 4.058303 6.498978 -5.603428
v 4.058303 4.995751 -5.603428
v 4.206507 4.995751 -5.603428
v 4.206507 6.498978 -5.603428
v 4.232263 3.048382 2.449779
v 4.232263 3.048382 4.092783
v 4.134604 3.048382 4.092783
v 4.134604 3.048382 2.449779
v 4.232263 3.048382 -2.444413
v 4.134604 3.048382 -2.444413
v 4.134604 3.048382 -4.087416
v 4.232263 3.048382 -4.087416
v 4.278765 3.345582 1.103856
v 3.969056 3.345582 1.103856
v 3.969056 3.345582 -1.103894
v 4.278765 3.345582 -1.103894
v 4.278765 3.175670 -0.930893
v 4.223870 3.175670 -0.930893
v 4.223870 3.175670 0.930856
v 4.278765 3.175670 0.930856
v 5.647982 3.711651 5.494907
v 5.647982 3.487974 5.494907
v 4.071486 3.487974 5.494908
v 4.071486 4.243958 5.494908
v 4.071486 3.487974 -5.494945
v 4.071486 4.243958 -5.494945
v 5.647982 3.487974 -5.494945
v 5.647982 3.711651 -5.494945
v 4.165491 4.436334 5.499981
v -4.834507 4.436335 5.499981
v -4.834508 4.436335 -5.500018
v 4.165491 4.436334 -5.500018
v 4.254995 4.436334 5.609373
v 4.254994 4.436334 -5.609410
v 4.254995 5.007524 5.609373
v 4.254994 5.007524 -5.609410
v -4.924011 4.436335 -5.609410
v -4.924011 4.436335 5.609373
v 3.728702 5.007524 4.966126
v 3.728701 5.007524 -4.966163
v -4.924011 5.007524 -5.609410
v -4.924011 5.007524 5.609373
v 3.728702 4.707571 4.966126
v 3.728701 4.707571 -4.966163
v -4.397718 5.007524 -4.966163
v -4.397718 5.007524 4.966126
v -4.397718 4.707572 4.966126
v -4.397718 4.707572 -4.966163
v -4.834508 2.283188 -5.500018
v 4.232263 1.471659 4.092783
v 0.194709 1.958570 -5.500018
v 4.163892 1.476072 4.092783
v 4.278765 1.591251 -1.103894
v 4.134604 1.477962 4.092783
v 4.134604 1.504606 2.963389
v 4.165491 1.702268 -5.500018
v 4.134604 1.516722 2.449779
v 4.165491 1.532314 1.704256
v 4.201395 1.512411 2.449779
v 4.232263 1.510418 2.449779
v 4.232263 1.483408 3.594681
v 4.232263 1.625876 -2.444413
v 4.134604 1.656207 -3.462899
v 3.969056 1.586605 -0.059585
v 4.170579 1.629858 -2.444413
v 4.278765 1.589213 -1.017530
v 4.232263 1.640335 -3.057319
v 4.278765 1.587169 -0.930893
v 4.134604 1.632179 -2.444413
v 4.278765 1.541373 1.010353
v 4.134604 1.670938 -4.087416
v 4.194670 1.667063 -4.087416
v 4.223870 1.568432 0.013568
v 4.232263 1.664637 -4.087416
v 4.165491 1.442771 5.499981
v 4.278765 1.539167 1.103856
v -1.206822 1.789536 5.499981
v 4.112151 1.549923 1.103856
v 4.251363 1.588937 -0.930893
v 4.223870 1.590711 -0.930893
v 4.250512 1.545072 0.930856
v -4.834507 2.023688 5.499981
v 3.969056 1.559158 1.103856
v 4.223870 1.546792 0.930856
v -4.834508 2.157080 -0.154379
v 3.969056 1.611243 -1.103894
v 4.278765 1.543249 0.930856
v 4.130950 1.600792 -1.103894
vn -0.0000 -0.0000 1.0000
vn -0.0000 -0.0000 -1.0000
vn -0.0000 1.0000 -0.0000
vn 1.0000 -0.0000 -0.0000
vn -0.0000 -1.0000 -0.0000
vn -1.0000 -0.0000 -0.0000
vn 0.3199 0.9474 -0.0000
vt 0.267458 0.453498
vt 0.290583 0.476736
vt 0.271674 0.498998
vt 0.292159 0.473636
vt 0.295208 0.476318
vt 0.314604 0.499012
vt 0.293322 0.478458
vt 0.317449 0.453515
vt 0.500263 0.211014
vt 0.508480 0.220807
vt 0.499181 0.230318
vt 0.509478 0.219764
vt 0.499181 0.191705
vt 0.505379 0.197929
vt 0.500317 0.203930
vt 0.509241 0.201073
vt 0.510956 0.201381
vt 0.516019 0.207301
vt 0.510465 0.201938
vt 0.520387 0.191705
vt 0.700700 0.856678
vt 0.700356 0.856339
vt 0.700065 0.855777
vt 0.701559 0.856997
vt 0.699751 0.856681
vt 0.698197 0.855848
vt 0.699333 0.856319
vt 0.698700 0.857150
vt 0.699977 0.855756
vt 0.698561 0.857151
vt 0.700874 0.856757
vt 0.698303 0.857705
vt 0.700611 0.856640
vt 0.700182 0.855523
vt 0.699968 0.855780
vt 0.700053 0.855465
vt 0.959466 0.725903
vt 0.035439 0.601959
vt 0.959466 0.601959
vt 0.035439 0.725903
vt 0.672778 0.426387
vt 0.672778 0.419682
vt 0.672778 0.442343
vt 0.972877 0.419682
vt 0.972877 0.442343
vt 0.972877 0.426387
vt 0.506557 0.224192
vt 0.513047 0.230318
vt 0.509345 0.221339
vt 0.510016 0.220613
vt 0.516684 0.213779
vt 0.510322 0.220283
vt 0.569067 0.246174
vt 0.451971 0.086116
vt 0.569067 0.088879
vt 0.401028 0.246174
vt 0.509662 0.200244
vt 0.509968 0.201512
vt 0.567508 0.245257
vt 0.463299 0.102813
vt 0.567508 0.105272
vt 0.401295 0.245257
vt 0.700183 0.856463
vt 0.700757 0.856489
vt 0.975835 0.309577
vt 0.888080 0.160241
vt 0.975835 0.162311
vt 0.802850 0.309577
vt 0.332328 0.222953
vt 0.366950 0.257575
vt 0.332328 0.262111
vt 0.390328 0.222953
vt 0.362142 0.252767
vt 0.332328 0.254512
vt 0.364739 0.255364
vt 0.332328 0.251117
vt 0.370314 0.260939
vt 0.332328 0.258716
vt 0.387016 0.875297
vt 0.445016 0.933297
vt 0.387016 0.933297
vt 0.445016 0.875297
vt 0.619437 0.162406
vt 0.677437 0.220406
vt 0.619437 0.220406
vt 0.677437 0.162406
vt 0.696752 0.855794
vt 0.697668 0.856117
vt 0.696549 0.856030
vt 0.696625 0.856072
vt 0.697689 0.856066
vt 0.519648 0.203597
vt 0.513789 0.211014
vt 0.401028 0.084915
vt 0.401295 0.101351
vt 0.802850 0.158230
vt 0.390328 0.254512
vt 0.390328 0.251117
vt 0.390328 0.258716
vt 0.390328 0.262111
s 1
usemtl Building_Drug_Store
f 69/81/7 71/82/7 70/83/7
f 69/81/7 72/84/7 71/82/7
f 73/85/8 75/86/8 74/87/8
f 73/85/8 76/88/8 75/86/8
f 77/89/9 79/90/9 78/91/9
f 77/89/9 80/92/9 79/90/9
f 81/93/7 137/94/7 134/95/7
f 81/93/7 141/96/7 137/94/7
f 83/97/8 144/98/8 143/99/8
f 84/100/8 144/98/8 83/97/8
f 85/101/7 150/102/7 148/103/7
f 86/104/7 150/102/7 85/101/7
f 87/105/8 160/106/8 158/107/8
f 88/108/8 160/106/8 87/105/8
f 88/108/9 86/104/9 85/101/9
f 88/108/9 87/105/9 86/104/9
f 85/101/10 148/103/10 142/109/10
f 89/110/11 91/111/11 90/112/11
f 89/110/11 92/113/11 91/111/11
f 92/113/8 156/114/8 91/111/8
f 92/113/8 159/115/8 153/116/8
f 72/84/12 74/87/12 71/82/12
f 72/84/12 73/85/12 74/87/12
f 76/117/10 70/118/10 75/119/10
f 76/117/10 69/120/10 70/118/10
f 70/83/11 74/87/11 75/86/11
f 70/83/11 71/82/11 74/87/11
f 76/88/9 72/84/9 69/81/9
f 76/88/9 73/85/9 72/84/9
f 93/121/7 95/122/7 94/122/7
f 93/121/7 96/123/7 95/122/7
f 96/123/12 97/124/12 95/122/12
f 96/123/12 98/125/12 97/124/12
f 98/125/8 99/124/8 97/124/8
f 98/125/8 100/126/8 99/124/8
f 100/126/10 94/122/10 99/124/10
f 100/126/10 93/121/10 94/122/10
f 94/122/11 97/124/11 99/124/11
f 94/122/11 95/122/11 97/124/11
f 100/126/13 96/123/13 93/121/13
f 100/126/13 98/125/13 96/123/13
f 78/91/7 124/127/7 122/128/7
f 78/91/7 126/129/7 124/127/7
f 79/90/12 127/130/12 126/129/12
f 80/92/12 127/130/12 79/90/12
f 80/92/8 131/131/8 129/132/8
f 77/89/8 131/131/8 80/92/8
f 77/133/10 133/134/10 132/135/10
f 78/136/10 133/134/10 77/133/10
f 82/137/12 135/138/12 141/96/12
f 83/97/12 135/138/12 82/137/12
f 84/139/10 139/140/10 146/141/10
f 81/142/10 139/140/10 84/139/10
f 84/100/9 82/137/9 81/93/9
f 84/100/9 83/97/9 82/137/9
f 86/104/12 136/143/12 155/144/12
f 87/105/12 136/143/12 86/104/12
f 88/108/10 92/113/10 89/110/10
f 88/108/10 85/101/10 92/113/10
f 142/109/10 92/113/10 85/101/10
f 90/145/10 145/146/10 152/147/10
f 91/148/10 145/146/10 90/145/10
f 101/149/7 149/150/7 147/151/7
f 102/152/7 149/150/7 101/149/7
f 102/149/12 157/153/12 154/154/12
f 103/152/12 157/153/12 102/149/12
f 103/149/8 123/155/8 121/156/8
f 104/152/8 123/155/8 103/149/8
f 104/149/10 130/157/10 128/158/10
f 101/152/10 130/157/10 104/149/10
f 101/159/11 106/160/11 105/161/11
f 101/159/11 104/162/11 106/160/11
f 105/159/10 108/160/10 107/161/10
f 105/159/10 106/162/10 108/160/10
f 104/159/11 109/160/11 106/161/11
f 104/159/11 103/162/11 109/160/11
f 103/159/11 110/160/11 109/161/11
f 103/159/11 102/162/11 110/160/11
f 102/159/11 105/160/11 110/161/11
f 102/159/11 101/162/11 105/160/11
f 107/159/9 112/160/9 111/161/9
f 107/159/9 108/162/9 112/160/9
f 106/159/8 113/160/8 108/161/8
f 106/159/8 109/162/8 113/160/8
f 109/159/12 114/160/12 113/161/12
f 109/159/12 110/162/12 114/160/12
f 110/159/7 107/160/7 114/161/7
f 110/159/7 105/162/7 107/160/7
f 111/159/12 116/160/12 115/161/12
f 111/159/12 112/162/12 116/160/12
f 108/159/9 117/160/9 112/161/9
f 108/159/9 113/162/9 117/160/9
f 113/159/9 118/160/9 117/161/9
f 113/159/9 114/162/9 118/160/9
f 114/159/9 111/160/9 118/161/9
f 114/159/9 107/162/9 111/160/9
f 116/163/9 119/164/9 115/165/9
f 116/163/9 120/166/9 119/164/9
f 112/159/7 120/160/7 116/161/7
f 112/159/7 117/162/7 120/160/7
f 117/159/10 119/160/10 120/161/10
f 117/159/10 118/162/10 119/160/10
f 118/159/8 115/160/8 119/161/8
f 118/159/8 111/162/8 115/160/8
f 140/167/10 138/168/10 89/110/10
f 152/169/7 151/170/7 90/112/7
f 151/170/7 89/110/7 90/112/7
f 125/171/10 89/110/10 138/168/10
f 81/93/7 82/137/7 141/96/7
f 84/100/8 146/172/8 144/98/8
f 86/104/7 155/144/7 150/102/7
f 88/108/8 125/171/8 160/106/8
f 92/113/8 153/116/8 156/114/8
f 78/91/7 79/90/7 126/129/7
f 80/92/12 129/132/12 127/130/12
f 77/89/8 132/173/8 131/131/8
f 78/136/10 122/174/10 133/134/10
f 83/97/12 143/99/12 135/138/12
f 81/142/10 134/175/10 139/140/10
f 87/105/12 158/107/12 136/143/12
f 142/109/10 159/115/10 92/113/10
f 91/148/10 156/176/10 145/146/10
f 102/152/7 154/177/7 149/150/7
f 103/152/12 121/178/12 157/153/12
f 104/152/8 128/179/8 123/155/8
f 101/152/10 147/180/10 130/157/10
f 151/170/7 140/167/7 89/110/7
f 125/171/10 88/108/10 89/110/10
