# Blender 4.4.1
# www.blender.org
mtllib Restaurant.mtl
g Building_Restaurant_メッシュ
v 2.761838 0.007831 2.958712
v 2.483983 0.007831 2.958712
v 2.483983 0.007831 0.555740
v 2.761838 0.007831 0.555740
v 2.761838 0.008072 2.743274
v 2.761838 0.008072 0.771178
v 2.706130 0.008072 2.743274
v 2.706130 0.008072 0.771178
v 2.688297 3.166700 -0.163220
v 2.688297 1.154334 -0.163220
v 2.493222 1.154334 -0.163220
v 2.493222 3.166700 -0.163220
v 2.493222 1.154334 -2.975883
v 2.493222 3.166700 -2.975883
v 2.688297 1.154334 -2.975883
v 2.688297 3.166700 -2.975883
v -3.402447 4.939926 -3.680606
v -3.402446 5.333361 -3.680608
v -3.402447 -0.000027 -3.680606
v -3.402448 -0.000027 3.635516
v 2.694322 -0.000027 3.635517
v 2.694322 -0.000027 -3.680607
v -3.402446 0.393408 -3.680608
v 2.694324 0.393408 -3.680604
v 2.694322 0.393408 3.635518
v -3.402447 0.393408 3.635517
v -3.354062 0.007549 -3.622544
v -3.354063 0.007549 3.577454
v 2.645937 0.007549 3.577455
v 2.645937 0.007549 -3.622545
v -3.354062 4.470172 0.452368
v 0.262537 5.333362 -3.680606
v 2.761838 2.752248 0.722408
v 2.483983 2.897889 0.555740
v -2.184129 5.333361 -2.218627
v 2.761838 2.730900 0.771178
v 2.548768 2.880942 0.555740
v -3.402446 5.333361 -1.490636
v 2.761838 2.825207 0.555740
v 0.743763 5.207488 -3.680605
v 2.718900 2.742130 0.771178
v 2.706129 2.745471 0.771178
v 2.706129 2.484994 1.366226
v 2.735442 1.874540 2.743274
v 2.706129 1.882208 2.743274
v -0.191606 5.426731 -3.622543
v 2.645938 4.684526 -3.622543
v -3.354061 6.253924 -3.622545
v 2.483983 2.264368 2.002986
v 2.645937 3.587213 -1.115776
v 2.645937 1.532798 3.577455
v -3.402447 4.939926 -0.591851
v -3.402446 5.199098 -1.183920
v 2.761838 1.773329 2.958712
v -1.684124 4.939926 -1.618618
v 2.761838 1.821976 2.847582
v 2.617708 1.811030 2.958712
v 2.483983 1.846010 2.958712
v 2.761838 1.867635 2.743274
v 1.595514 1.807553 3.577455
v -3.354063 3.102199 3.577454
v 1.766680 4.939926 -3.680607
vn 1.0000 -0.0000 -0.0000
vn -0.0000 -1.0000 -0.0000
vn -0.0000 1.0000 -0.0000
vn -0.0000 -0.0000 1.0000
vn -1.0000 -0.0000 -0.0000
vn -0.0000 -0.0000 -1.0000
vt 0.288181 0.899659
vt 0.289593 0.879560
vt 0.287908 0.899925
vt 0.290875 0.878060
vt 0.297534 0.868729
vt 0.282552 0.895703
vt 0.291077 0.878001
vt 0.291077 0.901872
vt 0.276178 0.885388
vt 0.275853 0.885882
vt 0.275672 0.886170
vt 0.273177 0.884675
vt 0.405620 0.133928
vt 0.405620 0.022295
vt 0.564360 0.022295
vt 0.564360 0.133928
vt 0.414453 0.887109
vt 0.428545 0.901201
vt 0.414453 0.908219
vt 0.456845 0.887109
vt 0.424445 0.897101
vt 0.414453 0.917166
vt 0.429420 0.887109
vt 0.448456 0.921113
vt 0.414453 0.929502
vt 0.464453 0.917166
vt 0.431516 0.904172
vt 0.414453 0.902076
vt 0.464453 0.887109
vt 0.381250 0.877344
vt 0.431250 0.927344
vt 0.381250 0.927344
vt 0.431250 0.877344
vt 0.221094 0.264063
vt 0.271094 0.314063
vt 0.221094 0.314063
vt 0.271094 0.264063
vt 0.247448 0.290416
vt 0.251470 0.264063
vt 0.238502 0.281471
vt 0.243838 0.264063
vt 0.229847 0.272816
vt 0.228511 0.264063
vt 0.278372 0.904135
vt 0.278547 0.904503
vt 0.278942 0.904240
vt 0.279014 0.905924
vt 0.279838 0.905073
vt 0.276097 0.898838
vt 0.281644 0.886488
vt 0.256044 0.314063
vt 0.249392 0.292361
vt 0.272439 0.906996
vt 0.919316 0.220920
vt 0.968351 0.016807
vt 0.968351 0.242384
vt 0.805839 0.171247
vt 0.805839 0.016807
vt 0.275825 0.902286
vt 0.280185 0.888559
vt 0.273496 0.884325
vt 0.464453 0.908219
vt 0.243838 0.314063
vt 0.228511 0.314063
vt 0.236143 0.314063
vt 0.240717 0.264063
s 1
usemtl Building_Restaurant
f 1/1/1 6/2/1 5/3/1
f 1/1/1 4/4/1 6/2/1
f 1/1/2 3/5/2 4/4/2
f 1/1/2 2/6/2 3/5/2
f 5/3/3 8/7/3 7/8/3
f 5/3/3 6/2/3 8/7/3
f 4/4/1 39/9/1 33/10/1
f 4/4/1 36/11/1 6/2/1
f 41/12/4 8/7/4 6/2/4
f 6/2/4 36/11/4 41/12/4
f 9/13/4 11/14/4 10/14/4
f 9/13/4 12/13/4 11/14/4
f 12/13/5 13/15/5 11/14/5
f 12/13/5 14/16/5 13/15/5
f 14/16/6 15/15/6 13/15/6
f 14/16/6 16/16/6 15/15/6
f 16/16/1 10/14/1 15/15/1
f 16/16/1 9/13/1 10/14/1
f 10/14/2 13/15/2 15/15/2
f 10/14/2 11/14/2 13/15/2
f 16/16/3 12/13/3 9/13/3
f 16/16/3 14/16/3 12/13/3
f 17/17/2 55/18/2 52/19/2
f 17/17/2 62/20/2 55/18/2
f 18/17/3 35/21/3 32/22/3
f 18/17/3 38/23/3 35/21/3
f 17/17/6 40/24/6 62/25/6
f 17/17/6 32/26/6 40/24/6
f 18/17/5 53/27/5 38/28/5
f 17/29/5 53/27/5 18/17/5
f 19/30/2 21/31/2 20/32/2
f 19/30/2 22/33/2 21/31/2
f 23/30/3 25/31/3 24/32/3
f 23/30/3 26/33/3 25/31/3
f 19/30/6 24/31/6 22/32/6
f 19/30/6 23/33/6 24/31/6
f 22/30/1 25/31/1 21/32/1
f 22/30/1 24/33/1 25/31/1
f 21/30/4 26/31/4 20/32/4
f 21/30/4 25/33/4 26/31/4
f 23/30/5 20/31/5 26/32/5
f 23/30/5 19/33/5 20/31/5
f 27/34/2 29/35/2 28/36/2
f 27/34/2 30/37/2 29/35/2
f 46/38/6 30/36/6 27/34/6
f 27/34/6 48/39/6 46/38/6
f 50/40/1 29/36/1 30/34/1
f 30/34/1 47/41/1 50/40/1
f 60/42/4 28/36/4 29/34/4
f 29/34/4 51/43/4 60/42/4
f 59/44/1 56/45/1 5/3/1
f 54/46/1 5/3/1 56/45/1
f 45/47/6 44/48/6 7/8/6
f 59/44/6 7/8/6 44/48/6
f 49/49/5 34/50/5 3/5/5
f 61/51/5 31/52/5 28/35/5
f 49/49/5 2/6/5 58/53/5
f 43/54/1 8/55/1 42/56/1
f 31/52/5 27/37/5 28/35/5
f 43/54/1 45/57/1 7/58/1
f 54/46/4 2/6/4 1/1/4
f 57/59/4 58/53/4 2/6/4
f 37/60/6 3/5/6 34/50/6
f 37/60/6 39/9/6 4/4/6
f 4/4/1 33/10/1 36/11/1
f 41/12/4 42/61/4 8/7/4
f 17/17/6 18/29/6 32/26/6
f 17/29/5 52/62/5 53/27/5
f 46/38/6 47/63/6 30/36/6
f 50/40/1 51/64/1 29/36/1
f 60/42/4 61/65/4 28/36/4
f 54/46/1 1/1/1 5/3/1
f 59/44/6 5/3/6 7/8/6
f 49/49/5 3/5/5 2/6/5
f 43/54/1 7/58/1 8/55/1
f 31/52/5 48/66/5 27/37/5
f 54/46/4 57/59/4 2/6/4
f 37/60/6 4/4/6 3/5/6
g Building_Restaurant.001_メッシュ
v 2.761838 3.754531 2.958712
v 2.483983 3.754531 2.958712
v 2.483983 3.754531 0.555740
v 2.761838 3.754531 0.555740
v 2.761838 3.555318 2.743274
v 2.761838 3.555318 0.771178
v 2.706129 3.555318 0.771178
v 2.706129 3.555318 2.743274
v 2.744182 5.682458 2.651856
v 2.744182 4.577801 2.651856
v 2.634688 4.577801 2.651856
v 2.634688 5.682458 2.651856
v 2.634687 4.577801 -2.696946
v 2.634688 5.682458 -2.696946
v 2.744182 4.577801 -2.696946
v 2.744182 5.682458 -2.696946
v 3.987622 3.891943 3.240452
v 2.571392 3.891880 3.240452
v 2.571392 4.603240 3.240452
v 3.960410 4.030710 3.240452
v 3.879818 4.164145 3.240452
v 3.748944 4.287119 3.240452
v 3.572818 4.394907 3.240452
v 3.358207 4.483366 3.240452
v 3.113359 4.549097 3.240452
v 2.847685 4.589573 3.240452
v 2.571391 4.603241 -3.193459
v 2.571391 3.891881 -3.193459
v 3.987622 3.891943 -3.193459
v 3.960410 4.030711 -3.193459
v 3.879818 4.164145 -3.193459
v 3.748944 4.287119 -3.193459
v 3.572818 4.394907 -3.193459
v 3.358207 4.483366 -3.193459
v 3.113359 4.549097 -3.193459
v 2.847684 4.589574 -3.193459
v -3.402447 9.825634 -3.680606
v -3.402448 9.825634 3.635516
v 2.694322 9.825634 3.635517
v 2.694322 9.825634 -3.680607
v -3.402446 9.895683 -3.680608
v 2.694324 9.895683 -3.680604
v 2.694321 9.895683 3.635518
v -3.402447 9.895683 3.635517
v -3.402447 9.092838 -3.680606
v -3.402448 9.092838 3.635516
v 2.694322 9.092838 3.635517
v 2.694322 9.092838 -3.680607
v -3.402446 9.486274 -3.680608
v 2.694324 9.486274 -3.680604
v 2.694321 9.486274 3.635518
v -3.402447 9.486274 3.635517
v 2.688297 8.553175 2.663728
v 2.688297 5.919622 2.663728
v 2.493222 5.919622 2.663728
v 2.493222 8.553175 2.663728
v 2.493222 5.919622 0.849670
v 2.493222 8.553175 0.849670
v 2.688297 5.919622 0.849670
v 2.688297 8.553175 0.849670
v 2.688297 8.553175 -0.951892
v 2.688297 5.919622 -0.951892
v 2.493222 5.919622 -0.951892
v 2.493222 8.553175 -0.951892
v 2.493222 5.919622 -2.765949
v 2.493222 8.553175 -2.765949
v 2.688297 5.919622 -2.765949
v 2.688297 8.553175 -2.765949
v 2.493222 3.166700 -0.163220
v -3.402448 4.939926 3.635516
v 2.694322 4.939926 3.635517
v 2.694322 4.939926 -3.680607
v 2.694324 5.333362 -3.680604
v 2.694322 5.333362 3.635518
v -3.402447 5.333361 3.635517
v -3.354062 10.289147 3.577455
v -3.419849 10.289147 3.656400
v 2.711724 10.289147 3.656401
v 2.645937 10.289147 3.577456
v 2.645939 10.289147 -3.622542
v -3.354061 10.289147 -3.622546
v -3.419849 10.410986 3.656400
v 2.711724 10.410986 3.656401
v 2.711727 10.289147 -3.701487
v -3.419848 10.289147 -3.701491
v -2.997640 10.410986 3.149748
v 2.289515 10.410986 3.149750
v 2.711727 10.410986 -3.701487
v -3.419848 10.410986 -3.701491
v -2.997640 10.141239 3.149748
v 2.289515 10.141239 3.149750
v 2.289517 10.410986 -3.194836
v -2.997639 10.410986 -3.194839
v -2.997639 10.141239 -3.194839
v 2.289517 10.141239 -3.194836
v -3.354062 4.470172 0.452368
v 0.262537 5.333362 -3.680606
v 2.761838 2.752248 0.722408
v 2.483983 2.897889 0.555740
v -2.184129 5.333361 -2.218627
v 2.761838 2.730900 0.771178
v 2.548768 2.880942 0.555740
v -3.402446 5.333361 -1.490636
v 2.761838 2.825207 0.555740
v 0.743763 5.207488 -3.680605
v 2.718900 2.742130 0.771178
v 2.706129 2.745471 0.771178
v 2.706129 2.484994 1.366226
v 2.735442 1.874540 2.743274
v 2.933053 4.421597 -3.193459
v 2.706129 1.882208 2.743274
v 3.987622 3.891943 -2.613632
v 2.848833 3.891892 -1.933044
v 2.571391 3.891881 -1.767228
v 3.149315 4.365030 -3.193459
v -0.191606 5.426731 -3.622543
v 3.960410 4.030711 -2.914376
v 2.645938 4.684526 -3.622543
v 3.985279 3.903890 -2.639518
v -3.354061 6.253924 -3.622545
v 2.483983 2.264368 2.002986
v 3.957048 4.036276 -2.925088
v 2.645937 3.587213 -1.115776
v 2.571391 4.516197 -3.193459
v 2.645937 1.532798 3.577455
v -3.402447 4.939926 -0.591851
v -3.402446 5.199098 -1.183920
v 2.761838 1.773329 2.958712
v -1.684124 4.939926 -1.618618
v 2.761838 1.821976 2.847582
v 2.617708 1.811030 2.958712
v 2.483983 1.846010 2.958712
v 2.761838 1.867635 2.743274
v 1.595514 1.807553 3.577455
v -3.354063 3.102199 3.577454
v 1.766680 4.939926 -3.680607
vn -0.0000 -0.0000 1.0000
vn -0.0000 -0.0000 -1.0000
vn -0.0000 1.0000 -0.0000
vn 1.0000 -0.0000 -0.0000
vn -0.0000 -1.0000 -0.0000
vn -1.0000 -0.0000 -0.0000
vn 0.9813 0.1924 -0.0000
vn 0.8560 0.5170 -0.0000
vn 0.6848 0.7288 -0.0000
vn 0.5220 0.8529 -0.0000
vn 0.3811 0.9245 -0.0000
vn 0.2593 0.9658 -0.0000
vn 0.1506 0.9886 -0.0000
vn 0.0494 0.9988 -0.0000
vt 0.268574 0.909382
vt 0.275825 0.902286
vt 0.278942 0.904240
vt 0.272439 0.906996
vt 0.276935 0.891752
vt 0.280185 0.888559
vt 0.281644 0.886488
vt 0.271330 0.887805
vt 0.261940 0.918721
vt 0.269718 0.907956
vt 0.278547 0.904503
vt 0.271458 0.888171
vt 0.268244 0.909541
vt 0.268294 0.886196
vt 0.279014 0.905924
vt 0.278372 0.904135
vt 0.279838 0.905073
vt 0.000000 0.000000
vt 0.818295 0.727764
vt 0.197381 0.599530
vt 0.818295 0.599530
vt 0.197381 0.727764
vt 0.671872 0.405787
vt 0.671872 0.439102
vt 0.671872 0.405784
vt 0.671872 0.412286
vt 0.671872 0.418536
vt 0.671872 0.424296
vt 0.671872 0.429344
vt 0.671872 0.433487
vt 0.671872 0.436566
vt 0.671872 0.438462
vt 0.973217 0.439102
vt 0.973217 0.430594
vt 0.973217 0.435025
vt 0.973217 0.405787
vt 0.973217 0.427945
vt 0.973217 0.412286
vt 0.973217 0.418536
vt 0.973217 0.424296
vt 0.973217 0.429344
vt 0.973217 0.433487
vt 0.973217 0.436566
vt 0.973217 0.438462
vt 0.914183 0.405784
vt 0.946060 0.405787
vt 0.906417 0.405784
vt 0.947272 0.406346
vt 0.960146 0.412286
vt 0.960648 0.412547
vt 0.228859 0.881203
vt 0.282859 0.935203
vt 0.228859 0.935203
vt 0.282859 0.881203
vt 0.308984 0.871484
vt 0.358984 0.921484
vt 0.308984 0.921484
vt 0.358984 0.871484
vt 0.568110 0.245547
vt 0.400849 0.017911
vt 0.568110 0.017911
vt 0.400849 0.245547
vt 0.567998 0.245547
vt 0.400738 0.017911
vt 0.567998 0.017911
vt 0.400738 0.245547
vt 0.276097 0.898838
vt 0.968351 0.309120
vt 0.919316 0.220920
vt 0.968351 0.242384
vt 0.805839 0.309120
vt 0.414453 0.887109
vt 0.464453 0.937109
vt 0.414453 0.937109
vt 0.464453 0.887109
vt 0.252344 0.879297
vt 0.302344 0.929297
vt 0.252344 0.929297
vt 0.302344 0.879297
vt 0.249392 0.292361
vt 0.221094 0.314063
vt 0.221094 0.264063
vt 0.240717 0.264063
vt 0.642747 0.161750
vt 0.692747 0.211750
vt 0.642747 0.211750
vt 0.692747 0.161750
vt 0.973217 0.405784
vt 0.276178 0.885388
vt 0.275853 0.885882
vt 0.275672 0.886170
vt 0.243838 0.314063
vt 0.247448 0.290416
vt 0.271094 0.314063
vt 0.271094 0.264063
vt 0.228511 0.314063
vt 0.238502 0.281471
vt 0.273496 0.884325
vt 0.273177 0.884675
vt 0.236143 0.314063
vt 0.229847 0.272816
vt 0.428545 0.901201
vt 0.414453 0.908219
vt 0.456845 0.887109
vt 0.414453 0.917166
vt 0.424445 0.897101
vt 0.414453 0.929502
vt 0.448456 0.921113
vt 0.464453 0.917166
vt 0.431516 0.904172
vt 0.414453 0.902076
vt 0.464453 0.908219
vt 0.805839 0.171247
vt 0.256044 0.314063
vt 0.251470 0.264063
vt 0.243838 0.264063
vt 0.228511 0.264063
vt 0.429420 0.887109
s 1
usemtl Building_Restaurant
f 63/67/7 193/68/7 190/69/7
f 63/67/7 194/70/7 193/68/7
f 65/71/8 164/72/8 161/73/8
f 66/74/8 164/72/8 65/71/8
f 66/74/9 64/75/9 63/67/9
f 66/74/9 65/71/9 64/75/9
f 66/74/10 63/67/10 67/76/10
f 192/77/10 67/76/10 63/67/10
f 66/74/10 67/76/10 68/78/10
f 63/67/10 190/69/10 192/77/10
f 68/78/11 70/79/11 69/80/11
f 68/78/11 67/76/11 70/79/11
f 67/76/8 173/81/8 70/79/8
f 67/76/8 195/82/8 171/83/8
f 71/84/7 73/84/7 72/84/7
f 71/84/7 74/84/7 73/84/7
f 74/84/12 75/84/12 73/84/12
f 74/84/12 76/84/12 75/84/12
f 76/84/8 77/84/8 75/84/8
f 76/84/8 78/84/8 77/84/8
f 78/85/10 72/86/10 77/87/10
f 78/85/10 71/88/10 72/86/10
f 72/84/11 75/84/11 77/84/11
f 72/84/11 73/84/11 75/84/11
f 78/84/9 74/84/9 71/84/9
f 78/84/9 76/84/9 74/84/9
f 79/89/7 81/90/7 80/91/7
f 81/90/7 79/89/7 82/92/7
f 81/90/7 82/92/7 83/93/7
f 81/90/7 83/93/7 84/94/7
f 81/90/7 84/94/7 85/95/7
f 81/90/7 85/95/7 86/96/7
f 81/90/7 86/96/7 87/97/7
f 81/90/7 87/97/7 88/98/7
f 89/99/8 172/100/8 186/101/8
f 91/102/8 177/103/8 92/104/8
f 92/104/8 177/103/8 93/105/8
f 93/105/8 89/99/8 94/106/8
f 94/106/8 89/99/8 95/107/8
f 95/107/8 89/99/8 96/108/8
f 96/108/8 89/99/8 97/109/8
f 97/109/8 89/99/8 98/110/8
f 79/89/11 175/111/11 174/112/11
f 79/89/11 176/113/11 175/111/11
f 89/99/12 176/113/12 80/91/12
f 80/91/12 81/90/12 89/99/12
f 82/92/13 181/114/13 179/115/13
f 82/92/13 174/112/13 181/114/13
f 83/93/14 184/116/14 93/105/14
f 83/93/14 179/115/14 184/116/14
f 84/94/15 93/105/15 94/106/15
f 84/94/15 83/93/15 93/105/15
f 85/95/16 94/106/16 95/107/16
f 85/95/16 84/94/16 94/106/16
f 86/96/17 95/107/17 96/108/17
f 86/96/17 85/95/17 95/107/17
f 87/97/18 96/108/18 97/109/18
f 87/97/18 86/96/18 96/108/18
f 88/98/19 97/109/19 98/110/19
f 88/98/19 87/97/19 97/109/19
f 81/90/20 98/110/20 89/99/20
f 81/90/20 88/98/20 98/110/20
f 99/117/11 101/118/11 100/119/11
f 99/117/11 102/120/11 101/118/11
f 103/117/9 105/118/9 104/119/9
f 103/117/9 106/120/9 105/118/9
f 99/117/8 104/118/8 102/119/8
f 99/117/8 103/120/8 104/118/8
f 102/117/10 105/118/10 101/119/10
f 102/117/10 104/120/10 105/118/10
f 101/117/7 106/118/7 100/119/7
f 101/117/7 105/120/7 106/118/7
f 103/117/12 100/118/12 106/119/12
f 103/117/12 99/120/12 100/118/12
f 107/121/11 109/122/11 108/123/11
f 107/121/11 110/124/11 109/122/11
f 111/121/9 113/122/9 112/123/9
f 111/121/9 114/124/9 113/122/9
f 107/121/8 112/122/8 110/123/8
f 107/121/8 111/124/8 112/122/8
f 110/121/10 113/122/10 109/123/10
f 110/121/10 112/124/10 113/122/10
f 109/121/7 114/122/7 108/123/7
f 109/121/7 113/124/7 114/122/7
f 111/121/12 108/122/12 114/123/12
f 111/121/12 107/124/12 108/122/12
f 115/84/7 117/84/7 116/84/7
f 115/84/7 118/84/7 117/84/7
f 118/84/12 119/84/12 117/84/12
f 118/84/12 120/84/12 119/84/12
f 120/84/8 121/84/8 119/84/8
f 120/84/8 122/84/8 121/84/8
f 122/125/10 116/126/10 121/127/10
f 122/125/10 115/128/10 116/126/10
f 116/84/11 119/84/11 121/84/11
f 116/84/11 117/84/11 119/84/11
f 122/84/9 118/84/9 115/84/9
f 122/84/9 120/84/9 118/84/9
f 123/84/7 125/84/7 124/84/7
f 123/84/7 126/84/7 125/84/7
f 126/84/12 127/84/12 125/84/12
f 126/84/12 128/84/12 127/84/12
f 128/84/8 129/84/8 127/84/8
f 128/84/8 130/84/8 129/84/8
f 130/129/10 124/130/10 129/131/10
f 130/129/10 123/132/10 124/130/10
f 124/84/11 127/84/11 129/84/11
f 124/84/11 125/84/11 127/84/11
f 130/84/9 126/84/9 123/84/9
f 130/84/9 128/84/9 126/84/9
f 64/75/12 183/133/12 194/70/12
f 65/71/12 183/133/12 64/75/12
f 69/134/10 170/135/10 169/136/10
f 70/137/10 170/135/10 69/134/10
f 134/138/10 136/139/10 133/140/10
f 134/138/10 135/141/10 136/139/10
f 133/138/7 137/139/7 132/140/7
f 133/138/7 136/141/7 137/139/7
f 138/142/11 140/143/11 139/144/11
f 138/142/11 141/145/11 140/143/11
f 158/146/12 138/147/12 143/148/12
f 143/148/12 182/149/12 158/146/12
f 139/142/7 145/143/7 144/144/7
f 139/142/7 140/145/7 145/143/7
f 141/142/11 146/143/11 140/144/11
f 141/142/11 142/145/11 146/143/11
f 143/142/11 139/143/11 147/144/11
f 143/142/11 138/145/11 139/143/11
f 142/142/11 147/143/11 146/144/11
f 142/142/11 143/145/11 147/143/11
f 144/142/9 149/143/9 148/144/9
f 144/142/9 145/145/9 149/143/9
f 140/142/10 150/143/10 145/144/10
f 140/142/10 146/145/10 150/143/10
f 147/142/12 144/143/12 151/144/12
f 147/142/12 139/145/12 144/143/12
f 146/142/8 151/143/8 150/144/8
f 146/142/8 147/145/8 151/143/8
f 148/142/8 153/143/8 152/144/8
f 148/142/8 149/145/8 153/143/8
f 145/142/9 154/143/9 149/144/9
f 145/142/9 150/145/9 154/143/9
f 151/142/9 148/143/9 155/144/9
f 151/142/9 144/145/9 148/143/9
f 150/142/9 155/143/9 154/144/9
f 150/142/9 151/145/9 155/143/9
f 156/150/9 153/151/9 157/152/9
f 156/150/9 152/153/9 153/151/9
f 149/142/12 157/143/12 153/144/12
f 149/142/12 154/145/12 157/143/12
f 155/142/10 152/143/10 156/144/10
f 155/142/10 148/145/10 152/143/10
f 154/142/7 156/143/7 157/144/7
f 154/142/7 155/145/7 156/143/7
f 172/100/8 90/154/8 186/101/8
f 177/103/8 172/100/8 89/99/8
f 93/105/8 177/103/8 89/99/8
f 166/155/10 68/78/10 160/156/10
f 174/112/11 90/154/11 91/102/11
f 163/157/10 160/156/10 68/78/10
f 175/111/11 176/113/11 90/154/11
f 176/113/12 186/101/12 90/154/12
f 180/158/8 178/159/8 142/160/8
f 178/159/8 143/161/8 142/160/8
f 179/115/13 91/102/13 92/104/13
f 187/162/10 185/163/10 141/160/10
f 169/164/7 168/165/7 69/80/7
f 181/114/13 174/112/13 91/102/13
f 185/163/10 142/161/10 141/160/10
f 168/165/7 68/78/7 69/80/7
f 93/105/14 184/116/14 92/104/14
f 197/166/7 196/167/7 138/160/7
f 184/116/14 179/115/14 92/104/14
f 196/167/7 141/161/7 138/160/7
f 191/168/11 132/140/11 188/169/11
f 198/170/11 133/139/11 191/168/11
f 159/171/9 136/139/9 135/140/9
f 162/172/9 137/141/9 136/139/9
f 198/173/8 135/139/8 134/140/8
f 167/174/8 159/175/8 135/139/8
f 189/176/12 137/140/12 165/177/12
f 189/176/12 188/178/12 132/139/12
f 63/67/7 64/75/7 194/70/7
f 66/74/8 166/155/8 164/72/8
f 192/77/10 195/82/10 67/76/10
f 67/76/8 171/83/8 173/81/8
f 91/102/8 172/100/8 177/103/8
f 79/89/11 80/91/11 176/113/11
f 89/99/12 186/101/12 176/113/12
f 82/92/13 79/89/13 174/112/13
f 83/93/14 82/92/14 179/115/14
f 65/71/12 161/73/12 183/133/12
f 70/137/10 173/179/10 170/135/10
f 158/146/12 197/180/12 138/147/12
f 172/100/8 91/102/8 90/154/8
f 166/155/10 66/74/10 68/78/10
f 174/112/11 175/111/11 90/154/11
f 178/159/8 182/181/8 143/161/8
f 179/115/13 181/114/13 91/102/13
f 185/163/10 180/182/10 142/161/10
f 168/165/7 163/157/7 68/78/7
f 196/167/7 187/183/7 141/161/7
f 191/168/11 133/139/11 132/140/11
f 198/170/11 134/141/11 133/139/11
f 159/171/9 162/172/9 136/139/9
f 162/172/9 165/184/9 137/141/9
f 198/173/8 167/174/8 135/139/8
f 189/176/12 132/139/12 137/140/12
