# Blender 4.4.1
# www.blender.org
mtllib Rock.mtl
o Rock
v -2.546415 1.309472 0.598217
v -0.929911 2.507790 -0.100187
v 0.232737 1.694913 1.905668
v -1.571129 1.309473 -1.900763
v 2.420113 1.694907 -0.566258
v 0.752569 1.751835 -1.911417
v 2.132650 1.314339 1.150640
v 2.933578 -0.000000 -0.873236
v 1.826733 -0.000000 -2.124083
v 0.035820 -0.000000 -2.601858
v -1.755093 -0.000000 -2.124083
v -2.861940 -0.000000 -0.873236
v -2.861940 0.000000 0.672861
v -1.755093 0.000000 1.923708
v 0.035820 0.000000 2.401485
v 1.826733 0.000000 1.923708
v 2.933578 0.000000 0.672861
v -2.546415 -1.309472 0.598217
v -0.929911 -2.507790 -0.100187
v 0.232737 -1.694913 1.905668
v -1.571129 -1.309473 -1.900763
v 2.420113 -1.694907 -0.566258
v 0.752569 -1.751835 -1.911417
v 2.132650 -1.314339 1.150640
vn -0.3524 0.7783 0.5197
vn -0.6441 0.7224 -0.2514
vn 0.2027 0.9563 -0.2108
vn -0.1636 0.8472 -0.5055
vn 0.2596 0.9380 0.2297
vn 0.2856 0.9244 0.2527
vn 0.7075 0.3277 -0.6261
vn 0.5740 0.4361 -0.6931
vn -0.0791 0.3934 -0.9160
vn -0.2527 0.1971 -0.9473
vn -0.7871 0.5349 -0.3072
vn -0.9722 0.2343 -0.0000
vn -0.4238 0.5050 0.7519
vn -0.2460 0.2984 0.9222
vn 0.4065 0.3911 0.8257
vn 0.7321 0.2106 0.6478
vn 0.8651 0.4392 0.2422
vn 0.2485 0.2655 -0.9315
vn -0.7317 0.2132 -0.6474
vn -0.7317 0.2132 0.6474
vn 0.2499 0.2450 0.9368
vn 0.9570 0.2899 -0.0000
vn -0.3524 -0.7783 0.5197
vn -0.6441 -0.7224 -0.2514
vn 0.2027 -0.9563 -0.2108
vn -0.1636 -0.8472 -0.5055
vn 0.2596 -0.9380 0.2297
vn 0.2856 -0.9244 0.2527
vn 0.7075 -0.3277 -0.6261
vn 0.5740 -0.4361 -0.6931
vn -0.0791 -0.3934 -0.9160
vn -0.2527 -0.1971 -0.9473
vn -0.7871 -0.5349 -0.3072
vn -0.9722 -0.2343 -0.0000
vn -0.4238 -0.5050 0.7519
vn -0.2460 -0.2984 0.9222
vn 0.4065 -0.3911 0.8257
vn 0.7321 -0.2106 0.6478
vn 0.8651 -0.4392 0.2422
vn 0.2485 -0.2655 -0.9315
vn -0.7317 -0.2132 -0.6474
vn -0.7317 -0.2132 0.6474
vn 0.2499 -0.2450 0.9368
vn 0.9570 -0.2899 -0.0000
vt 0.707786 0.478178
vt 0.757786 0.495047
vt 0.741074 0.511466
vt 0.757786 0.478178
vt 0.757786 0.528178
vt 0.724499 0.478178
vt 0.740917 0.494596
vt 0.757786 0.503517
vt 0.757786 0.503516
vt 0.757786 0.511759
vt 0.757786 0.511466
s 1
usemtl Natures
f 1/1/1 3/2/1 2/3/1
f 4/1/2 1/4/2 2/5/2
f 5/6/3 6/4/3 2/7/3
f 6/1/4 4/4/4 2/5/4
f 3/1/5 5/4/5 2/7/5
f 3/1/5 7/4/6 5/8/6
f 8/1/7 9/4/7 5/5/7
f 9/1/8 6/9/8 5/5/8
f 10/1/9 4/4/9 6/5/9
f 10/1/10 11/4/10 4/8/10
f 12/1/11 1/4/11 4/5/11
f 12/1/12 13/4/12 1/8/12
f 14/1/13 3/2/13 1/5/13
f 14/1/14 15/4/14 3/10/14
f 16/1/15 7/4/15 3/5/15
f 16/1/16 17/4/16 7/5/16
f 17/1/17 5/8/17 7/5/17
f 9/1/18 10/4/18 6/5/18
f 11/1/19 12/4/19 4/5/19
f 13/1/20 14/4/20 1/5/20
f 15/1/21 16/4/21 3/5/21
f 17/1/22 8/4/22 5/11/22
f 18/1/23 19/3/23 20/2/23
f 21/1/24 19/5/24 18/4/24
f 22/6/25 19/7/25 23/4/25
f 23/1/26 19/5/26 21/4/26
f 20/1/27 19/7/27 22/4/27
f 20/1/27 22/8/28 24/4/28
f 8/1/29 22/5/29 9/4/29
f 9/1/30 22/5/30 23/9/30
f 10/1/31 23/5/31 21/4/31
f 10/1/32 21/8/32 11/4/32
f 12/1/33 21/5/33 18/4/33
f 12/1/34 18/8/34 13/4/34
f 14/1/35 18/5/35 20/2/35
f 14/1/36 20/10/36 15/4/36
f 16/1/37 20/5/37 24/4/37
f 16/1/38 24/5/38 17/4/38
f 17/1/39 24/5/39 22/8/39
f 9/1/40 23/5/40 10/4/40
f 11/1/41 21/5/41 12/4/41
f 13/1/42 18/5/42 14/4/42
f 15/1/43 20/5/43 16/4/43
f 17/1/44 22/11/44 8/4/44
