# Blender 4.4.1
# www.blender.org
mtllib RubbleFallArea.mtl
o Circle
v 0.000000 0.000000 -1.000000
v 0.195090 0.000000 -0.980785
v 0.382683 0.000000 -0.923880
v 0.555570 0.000000 -0.831470
v 0.707107 0.000000 -0.707107
v 0.831470 0.000000 -0.555570
v 0.923880 0.000000 -0.382683
v 0.980785 0.000000 -0.195090
v 1.000000 0.000000 0.000000
v 0.980785 0.000000 0.195090
v 0.923880 0.000000 0.382683
v 0.831470 0.000000 0.555570
v 0.707107 0.000000 0.707107
v 0.555570 0.000000 0.831470
v 0.382683 0.000000 0.923880
v 0.195090 0.000000 0.980785
v 0.000000 0.000000 1.000000
v -0.195090 0.000000 0.980785
v -0.382683 0.000000 0.923880
v -0.555570 0.000000 0.831470
v -0.707107 0.000000 0.707107
v -0.831470 0.000000 0.555570
v -0.923880 0.000000 0.382683
v -0.980785 0.000000 0.195090
v -1.000000 0.000000 0.000000
v -0.980785 0.000000 -0.195090
v -0.923880 0.000000 -0.382683
v -0.831470 0.000000 -0.555570
v -0.707107 0.000000 -0.707107
v -0.555570 0.000000 -0.831470
v -0.382683 0.000000 -0.923880
v -0.195090 0.000000 -0.980785
vn -0.0000 1.0000 -0.0000
vt 0.341844 0.471731
vt 0.028269 0.341844
vt 0.158156 0.028269
vt 0.419706 0.419706
vt 0.471731 0.158156
vt 0.471731 0.341844
vt 0.419706 0.080294
vt 0.341844 0.028269
vt 0.080294 0.080294
vt 0.028269 0.158156
vt 0.080294 0.419706
vt 0.158156 0.471731
vt 0.383337 0.449553
vt 0.449553 0.383337
vt 0.490000 0.250000
vt 0.485388 0.296822
vt 0.485388 0.203178
vt 0.449553 0.116663
vt 0.383337 0.050447
vt 0.250000 0.010000
vt 0.296822 0.014612
vt 0.203178 0.014612
vt 0.116663 0.050447
vt 0.050447 0.116663
vt 0.014612 0.203178
vt 0.010000 0.250000
vt 0.014612 0.296822
vt 0.050447 0.383337
vt 0.116663 0.449553
vt 0.203178 0.485388
vt 0.250000 0.490000
vt 0.296822 0.485388
s 0
usemtl Material.001
f 3/1/1 27/2/1 19/3/1
f 5/4/1 3/1/1 11/5/1
f 7/6/1 5/4/1 11/5/1
f 13/7/1 11/5/1 19/3/1
f 15/8/1 13/7/1 19/3/1
f 21/9/1 19/3/1 27/2/1
f 23/10/1 21/9/1 27/2/1
f 29/11/1 27/2/1 3/1/1
f 31/12/1 29/11/1 3/1/1
f 5/4/1 4/13/1 3/1/1
f 7/6/1 6/14/1 5/4/1
f 9/15/1 8/16/1 7/6/1
f 10/17/1 9/15/1 7/6/1
f 11/5/1 10/17/1 7/6/1
f 13/7/1 12/18/1 11/5/1
f 15/8/1 14/19/1 13/7/1
f 17/20/1 16/21/1 15/8/1
f 18/22/1 17/20/1 15/8/1
f 19/3/1 18/22/1 15/8/1
f 21/9/1 20/23/1 19/3/1
f 23/10/1 22/24/1 21/9/1
f 24/25/1 23/10/1 27/2/1
f 25/26/1 24/25/1 27/2/1
f 27/2/1 26/27/1 25/26/1
f 29/11/1 28/28/1 27/2/1
f 31/12/1 30/29/1 29/11/1
f 32/30/1 31/12/1 3/1/1
f 1/31/1 32/30/1 3/1/1
f 19/3/1 11/5/1 3/1/1
f 3/1/1 2/32/1 1/31/1
